<?xml version="1.0" encoding="utf-8"?>
<!-- Generator: Adobe Illustrator 27.5.0, SVG Export Plug-In . SVG Version: 6.00 Build 0)  -->
<svg version="1.1" xmlns="http://www.w3.org/2000/svg" xmlns:xlink="http://www.w3.org/1999/xlink" x="0px" y="0px"
	 viewBox="0 0 500 500" style="enable-background:new 0 0 500 500;" xml:space="preserve">
<g id="Background_Simple">
	<g>
		<path style="fill:#92E3A9;" d="M459.803,115.011c-1.723-2.868-3.514-5.683-5.385-8.434
			c-24.921-36.617-66.407-61.686-106.727-73.039c-17.663-4.982-35.798-7.587-53.902-8.253
			C175.046,20.971,131.424,118.877,93.166,144.12c-38.258,25.244-96.967,68.361-89.6,158.938
			c5.59,68.868,44.767,134.717,116.319,164.683c7.881,3.31,16.162,6.185,24.832,8.569c16.128,4.437,33.609,7.223,52.443,8.06
			c54.097,2.41,98.021-10.63,140.987-43.467c9.987-7.633,19.921-16.243,32.882-17.186c9.421-0.686,18.353,2.699,8.505,11.803
			c-11.574,10.701,1.78,31.748,31.16,17.126c49.069-24.422,69.255-77.113,78.764-130.693
			C501.131,256.187,495.473,174.4,459.803,115.011z"/>
		<path style="opacity:0.7;fill:#FFFFFF;" d="M459.803,115.011c-1.723-2.868-3.514-5.683-5.385-8.434
			c-24.921-36.617-66.407-61.686-106.727-73.039c-17.663-4.982-35.798-7.587-53.902-8.253
			C175.046,20.971,131.424,118.877,93.166,144.12c-38.258,25.244-96.967,68.361-89.6,158.938
			c5.59,68.868,44.767,134.717,116.319,164.683c7.881,3.31,16.162,6.185,24.832,8.569c16.128,4.437,33.609,7.223,52.443,8.06
			c54.097,2.41,98.021-10.63,140.987-43.467c9.987-7.633,19.921-16.243,32.882-17.186c9.421-0.686,18.353,2.699,8.505,11.803
			c-11.574,10.701,1.78,31.748,31.16,17.126c49.069-24.422,69.255-77.113,78.764-130.693
			C501.131,256.187,495.473,174.4,459.803,115.011z"/>
	</g>
</g>
<g id="Clouds_1_">
	<g>
		<line style="opacity:0.3;fill:none;stroke:#000000;stroke-miterlimit:10;" x1="276.08" y1="71.653" x2="426.495" y2="71.653"/>
		<path style="opacity:0.3;fill:none;stroke:#000000;stroke-miterlimit:10;" d="M395.825,27.171
			c-3.884-2.082-8.648-3.407-14.448-3.242c-23.199,0.663-23.199,12.594-29.828,17.897c-6.628,5.303-10.605-6.628-22.536-2.651
			s-11.931,13.257-17.897,15.245c-5.965,1.988-10.605-4.64-19.222-3.977s-5.965,1.988-13.257,8.617
			c-7.291,6.628-16.571-3.314-24.525-2.651c-7.954,0.663-7.291,5.965-11.931,9.28c-4.64,3.314-9.28,2.651-12.594,3.314
			c-3.314,0.663-11.268,2.651-11.268,2.651h50.74"/>
		<path style="opacity:0.3;fill:none;stroke:#000000;stroke-miterlimit:10;" d="M433.514,71.653h38.009
			c0,0-15.908-24.525-26.513-28.502c-10.605-3.977-15.908,3.977-23.862,5.303c-7.954,1.326-9.943-1.989-9.943-1.989
			s-2.501-8.752-9.806-15.352"/>
	</g>
	<g>
		<path style="opacity:0.3;fill:none;stroke:#000000;stroke-miterlimit:10;" d="M225.114,17.568
			c-2.596-1.809-5.981-3.08-10.335-2.956c-13.968,0.399-13.968,7.583-17.959,10.775c-3.991,3.193-6.385-3.991-13.569-1.596
			c-7.184,2.395-7.184,7.982-10.775,9.179c-3.592,1.197-6.385-2.794-11.574-2.395c-5.188,0.399-3.592,1.197-7.982,5.188
			c-4.39,3.991-9.977-1.996-14.766-1.596s-4.39,3.592-7.184,5.587c-2.794,1.995-5.587,1.596-7.583,1.995
			c-1.995,0.399-6.785,1.596-6.785,1.596h152.452c0,0-9.578-14.766-15.964-17.161c-6.385-2.395-9.578,2.395-14.367,3.193
			c-4.789,0.798-5.986-1.197-5.986-1.197s-0.676-2.366-2.445-5.122"/>
	</g>
</g>
<g id="Mountains">
	<g style="opacity:0.3;">
		<path style="fill:none;stroke:#000000;stroke-miterlimit:10;" d="M472.212,161.066c11.487,4.445,19.713,7.696,19.713,7.696"/>
		<path style="fill:none;stroke:#000000;stroke-miterlimit:10;" d="M24.054,84.761C41.415,69.4,63.106,50.878,65.98,51.596
			c4.882,1.22,86.654,78.721,86.654,78.721s43.327-28.071,50.65-26.24c7.323,1.831,110.453,60.413,120.217,57.973
			c9.764-2.441,67.126-28.071,79.941-25.63c7.704,1.467,38.127,12.861,61.167,21.714"/>
		<path style="fill:none;stroke:#000000;stroke-miterlimit:10;" d="M1.905,104.687c0,0,7.826-7.181,18.022-16.262"/>
		<path style="fill:none;stroke:#000000;stroke-miterlimit:10;" d="M65.98,51.596c0,0,73.839,124.488,78.11,124.488
			c4.272,0,0-20.138,0-21.969s7.323,4.272,7.323-3.051c0-7.323,1.22-20.748,1.22-20.748"/>
		<path style="fill:none;stroke:#000000;stroke-miterlimit:10;" d="M203.283,104.077c0,0,53.151,55.115,62.528,61.813
			c9.377,6.698,4.688-9.377,8.707-8.037c4.019,1.34,20.763,5.358,28.13,7.368c7.367,2.009,20.852-3.171,20.852-3.171"/>
	</g>
</g>
<g id="Track_2">
	<g>
		<path style="fill:none;stroke:#263238;stroke-width:2;stroke-miterlimit:10;" d="M79.282,195.415
			c9.026,0.542,20.721,1.458,36.264,3.116c31.561,3.367,40.051,41.854,21.606,55.757c-18.445,13.902-35.545,18.818-59.242,44.605"/>
		<path style="fill:none;stroke:#263238;stroke-width:2;stroke-miterlimit:10;" d="M47.244,120.471c0,0,6.273,16.03-7.667,30.666
			s-12.545,36.939,4.879,41.818c5.75,1.61,11.07,1.381,24.314,1.927"/>
		<circle style="fill:none;stroke:#263238;stroke-width:2;stroke-miterlimit:10;" cx="73.421" cy="195.963" r="5.501"/>
		<path style="fill:none;stroke:#263238;stroke-width:2;stroke-miterlimit:10;" d="M52.745,114.97c0,3.038-2.463,5.501-5.501,5.501
			c-3.038,0-5.501-2.463-5.501-5.501s2.463-5.501,5.501-5.501C50.282,109.469,52.745,111.932,52.745,114.97z"/>
	</g>
</g>
<g id="Trees_2">
	<g>
		<g>
			<path style="fill:#92E3A9;" d="M215.081,243.652l18.039-9.412l1.476-0.521c0.083-0.183,0.17-0.361,0.249-0.547l-0.244-0.295
				l-3.058,1.406l5.493-8.624c0.095-0.549,0.178-1.105,0.249-1.668l0.234-7.219c0,0-3.197,3.068-3.614,3.195
				c-0.365,0.112,2.255-9.874,2.911-12.356c-0.198-1.814-0.432-3.73-0.698-5.716l-4.02,2.095l3.058-4.729l-1.112-9.587l-2.085,0.895
				l1.512-4.663c-0.658-3.32-1.383-6.598-2.164-9.707l-1.989-4.675l-0.973,4.09l-0.131-9.774
				c-2.308-6.358-4.916-10.603-7.678-10.603c-3.334,0-6.444,6.184-9.073,14.809l-0.075,5.568l-0.696-2.925
				c-1.356,4.865-2.567,10.325-3.591,15.806l0.673,2.075l-0.976-0.419c-0.614,3.412-1.155,6.809-1.612,10.052l2.449,3.788
				l-2.768-1.443c-0.416,3.161-0.746,6.133-0.981,8.778c0.975,3.79,2.199,8.721,1.942,8.642c-0.24-0.074-1.403-1.123-2.346-2
				c-0.008,0.358-0.013,0.706-0.013,1.03c0,3.496,0.455,6.829,1.276,9.875l3.446,5.41l-1.856-0.853
				C208.411,238.164,211.478,241.798,215.081,243.652z"/>
			<polygon style="fill:#263238;" points="216.762,215.604 219.458,219.269 218.987,230.491 215.849,228.362 218.889,232.814 
				218.666,241.782 221.247,240.435 221.067,224.285 230.107,219.301 224.939,221.213 225.976,218.102 223.505,221.743 
				221.039,222.655 220.863,212.441 229.84,200.513 225.029,205.324 225.843,201.979 223.541,206.812 220.813,209.541 
				220.538,193.582 219.56,216.857 211.052,207.842 215.725,214.195 211.319,213.705 			"/>
			<g>
				<path style="fill:#FFFFFF;" d="M229.926,193.632c0,0,0.158,1.568-0.699,2.719c-0.857,1.151-2.404,1.449-2.404,1.449
					s-0.158-1.568,0.699-2.719C228.379,193.931,229.926,193.632,229.926,193.632z"/>
				<path style="fill:#FFFFFF;" d="M235.07,200.859c0,0,0.158,1.568-0.699,2.719c-0.857,1.151-2.404,1.449-2.404,1.449
					s-0.158-1.568,0.699-2.719C233.522,201.157,235.07,200.859,235.07,200.859z"/>
				<path style="fill:#FFFFFF;" d="M235.067,214.93c0,0-0.379,1.53-1.574,2.325c-1.194,0.795-2.752,0.555-2.752,0.555
					s0.379-1.529,1.574-2.325C233.51,214.69,235.067,214.93,235.067,214.93z"/>
				<path style="fill:#FFFFFF;" d="M206.819,214.93c0,0,0.379,1.53,1.574,2.325c1.194,0.795,2.752,0.555,2.752,0.555
					s-0.379-1.529-1.574-2.325C208.376,214.69,206.819,214.93,206.819,214.93z"/>
				<path style="fill:#FFFFFF;" d="M229.127,209.089c0,0,0.158,1.568-0.699,2.719c-0.857,1.151-2.404,1.449-2.404,1.449
					s-0.158-1.568,0.699-2.719C227.579,209.387,229.127,209.089,229.127,209.089z"/>
				<path style="fill:#FFFFFF;" d="M227.794,185.771c0,0,0.158,1.568-0.699,2.719c-0.857,1.151-2.404,1.449-2.404,1.449
					s-0.158-1.568,0.699-2.719C226.247,186.069,227.794,185.771,227.794,185.771z"/>
				<path style="fill:#FFFFFF;" d="M224.729,191.767c0,0,0.158,1.568-0.699,2.719c-0.857,1.151-2.404,1.449-2.404,1.449
					s-0.158-1.568,0.699-2.719C223.182,192.065,224.729,191.767,224.729,191.767z"/>
				<path style="fill:#FFFFFF;" d="M232.005,187.401c0,0,0.158,1.568-0.699,2.719c-0.857,1.151-2.404,1.449-2.404,1.449
					s-0.158-1.568,0.699-2.719C230.458,187.699,232.005,187.401,232.005,187.401z"/>
				<path style="fill:#FFFFFF;" d="M208.363,187.401c0,0-0.158,1.568,0.699,2.719c0.857,1.151,2.404,1.449,2.404,1.449
					s0.158-1.568-0.699-2.719C209.91,187.699,208.363,187.401,208.363,187.401z"/>
				<path style="fill:#FFFFFF;" d="M228.46,178.442c0,0,0.158,1.568-0.699,2.719c-0.857,1.151-2.404,1.449-2.404,1.449
					s-0.158-1.568,0.699-2.719C226.913,178.74,228.46,178.442,228.46,178.442z"/>
				<path style="fill:#FFFFFF;" d="M226.954,170.657c0,0,0.547,1.478,0.006,2.807c-0.54,1.329-1.963,2.007-1.963,2.007
					s-0.547-1.478-0.006-2.807C225.532,171.335,226.954,170.657,226.954,170.657z"/>
				<path style="fill:#FFFFFF;" d="M216.162,168.623c0,0,1.396,0.731,1.885,2.08c0.489,1.349-0.113,2.805-0.113,2.805
					s-1.396-0.731-1.885-2.08S216.162,168.623,216.162,168.623z"/>
				<path style="fill:#FFFFFF;" d="M221.195,177.932c0,0,0.994,1.222,0.912,2.655c-0.082,1.433-1.21,2.533-1.21,2.533
					s-0.994-1.223-0.912-2.655C220.067,179.033,221.195,177.932,221.195,177.932z"/>
				<path style="fill:#FFFFFF;" d="M220.928,164.074c0,0,0.994,1.223,0.912,2.655c-0.082,1.433-1.21,2.533-1.21,2.533
					s-0.994-1.222-0.912-2.655C219.8,165.175,220.928,164.074,220.928,164.074z"/>
				<path style="fill:#FFFFFF;" d="M209.634,193.632c0,0-0.158,1.568,0.699,2.719c0.857,1.151,2.404,1.449,2.404,1.449
					s0.158-1.568-0.699-2.719C211.181,193.931,209.634,193.632,209.634,193.632z"/>
				<path style="fill:#FFFFFF;" d="M206.702,202.16c0,0-0.158,1.568,0.699,2.719c0.857,1.151,2.404,1.449,2.404,1.449
					s0.158-1.568-0.699-2.719C208.25,202.458,206.702,202.16,206.702,202.16z"/>
				<path style="fill:#FFFFFF;" d="M214.484,205.256c0,0-0.158,1.568,0.699,2.719c0.857,1.151,2.404,1.449,2.404,1.449
					s0.158-1.568-0.699-2.719C216.031,205.555,214.484,205.256,214.484,205.256z"/>
				<path style="fill:#FFFFFF;" d="M216.611,193.44c0,0-0.6,1.457-0.109,2.805c0.492,1.348,1.889,2.077,1.889,2.077
					s0.6-1.457,0.109-2.805C218.008,194.169,216.611,193.44,216.611,193.44z"/>
				<path style="fill:#FFFFFF;" d="M211.101,224.883c0,0,1.576,0.029,2.652-0.92c1.077-0.949,1.247-2.515,1.247-2.515
					s-1.576-0.029-2.652,0.92C211.272,223.316,211.101,224.883,211.101,224.883z"/>
				<path style="fill:#FFFFFF;" d="M226.22,223.159c0,0,0.428,1.517,1.647,2.273c1.219,0.757,2.768,0.467,2.768,0.467
					s-0.428-1.516-1.647-2.273C227.769,222.87,226.22,223.159,226.22,223.159z"/>
				<path style="fill:#FFFFFF;" d="M212.859,185.771c0,0-0.158,1.568,0.699,2.719c0.857,1.151,2.404,1.449,2.404,1.449
					s0.158-1.568-0.699-2.719C214.406,186.069,212.859,185.771,212.859,185.771z"/>
				<path style="fill:#FFFFFF;" d="M212.832,178.842c0,0-0.158,1.568,0.699,2.719c0.857,1.151,2.404,1.449,2.404,1.449
					s0.158-1.568-0.699-2.719C214.379,179.14,212.832,178.842,212.832,178.842z"/>
			</g>
		</g>
	</g>
	<g>
		<g>
			<path style="fill:#92E3A9;" d="M75.251,292.827l-3.536,1.626l6.352-9.973c0.11-0.635,0.205-1.278,0.288-1.929l0.271-8.348
				c0,0-3.697,3.547-4.179,3.695c-0.422,0.129,2.607-11.418,3.366-14.288c-0.229-2.097-0.499-4.313-0.807-6.61l-4.648,2.422
				l3.536-5.469l-1.286-11.085l-2.411,1.035l1.749-5.393c-0.761-3.839-1.599-7.63-2.503-11.225l-2.3-5.405l-1.125,4.73
				l-0.152-11.302c-2.669-7.352-5.685-12.26-8.879-12.26c-3.855,0-7.452,7.151-10.491,17.124l-0.087,6.438l-0.805-3.383
				c-1.568,5.626-2.968,11.939-4.152,18.277l0.778,2.399l-1.128-0.484c-0.71,3.946-1.335,7.873-1.864,11.624l2.832,4.38
				l-3.201-1.668c-0.481,3.655-0.863,7.091-1.134,10.15c1.128,4.383,2.543,10.084,2.246,9.993c-0.278-0.085-1.622-1.298-2.712-2.312
				c-0.009,0.414-0.015,0.817-0.015,1.191c0,4.043,0.527,7.897,1.475,11.419l3.985,6.256l-2.146-0.987
				c3.539,8.078,9.571,13.4,16.42,13.4c6.932,0,13.025-5.454,16.545-13.697L75.251,292.827z"/>
			<g>
				<polygon style="fill:#263238;" points="48.328,270.658 54.622,272.854 57.74,277.092 57.195,290.069 53.566,287.607 
					57.082,292.754 56.477,314.078 58.514,312.686 59.97,311.494 59.6,282.892 70.053,277.129 64.077,279.339 65.276,275.743 
					62.42,279.953 59.567,281.008 59.364,269.196 69.745,255.404 64.181,260.968 65.122,257.099 62.461,262.688 59.306,265.843 
					58.988,247.389 57.857,274.303 48.02,263.879 53.423,271.224 				"/>
			</g>
			<g>
				<path style="fill:#FFFFFF;" d="M69.844,247.448c0,0,0.183,1.813-0.809,3.144c-0.991,1.331-2.78,1.676-2.78,1.676
					s-0.183-1.813,0.808-3.144C68.055,247.792,69.844,247.448,69.844,247.448z"/>
				<path style="fill:#FFFFFF;" d="M75.792,255.804c0,0,0.182,1.813-0.808,3.144c-0.991,1.331-2.78,1.676-2.78,1.676
					s-0.183-1.813,0.809-3.144C74.003,256.149,75.792,255.804,75.792,255.804z"/>
				<path style="fill:#FFFFFF;" d="M75.789,272.074c0,0-0.438,1.769-1.82,2.688c-1.381,0.92-3.182,0.642-3.182,0.642
					s0.438-1.769,1.82-2.688C73.988,271.797,75.789,272.074,75.789,272.074z"/>
				<path style="fill:#FFFFFF;" d="M43.125,272.074c0,0,0.438,1.769,1.819,2.688c1.381,0.92,3.182,0.642,3.182,0.642
					s-0.438-1.769-1.82-2.688C44.926,271.797,43.125,272.074,43.125,272.074z"/>
				<path style="fill:#FFFFFF;" d="M68.92,265.321c0,0,0.183,1.813-0.809,3.144c-0.991,1.331-2.78,1.676-2.78,1.676
					s-0.183-1.813,0.808-3.144C67.13,265.665,68.92,265.321,68.92,265.321z"/>
				<path style="fill:#FFFFFF;" d="M67.379,238.357c0,0,0.182,1.813-0.808,3.144c-0.991,1.331-2.78,1.676-2.78,1.676
					s-0.182-1.813,0.808-3.144C65.59,238.702,67.379,238.357,67.379,238.357z"/>
				<path style="fill:#FFFFFF;" d="M63.835,245.29c0,0,0.183,1.813-0.808,3.144c-0.991,1.331-2.78,1.676-2.78,1.676
					s-0.182-1.813,0.809-3.144C62.046,245.635,63.835,245.29,63.835,245.29z"/>
				<path style="fill:#FFFFFF;" d="M72.248,240.242c0,0,0.182,1.813-0.809,3.144c-0.991,1.331-2.78,1.676-2.78,1.676
					s-0.183-1.813,0.808-3.144C70.459,240.587,72.248,240.242,72.248,240.242z"/>
				<path style="fill:#FFFFFF;" d="M44.91,240.242c0,0-0.182,1.813,0.808,3.144c0.991,1.331,2.78,1.676,2.78,1.676
					s0.182-1.813-0.809-3.144C46.699,240.587,44.91,240.242,44.91,240.242z"/>
				<path style="fill:#FFFFFF;" d="M68.149,229.883c0,0,0.182,1.813-0.808,3.144c-0.991,1.331-2.78,1.676-2.78,1.676
					s-0.182-1.813,0.808-3.144C66.36,230.227,68.149,229.883,68.149,229.883z"/>
				<path style="fill:#FFFFFF;" d="M66.408,220.881c0,0,0.632,1.709,0.007,3.246c-0.625,1.537-2.27,2.32-2.27,2.32
					s-0.632-1.709-0.007-3.246C64.762,221.664,66.408,220.881,66.408,220.881z"/>
				<path style="fill:#FFFFFF;" d="M53.929,218.529c0,0,1.614,0.845,2.18,2.405c0.566,1.56-0.131,3.243-0.131,3.243
					s-1.614-0.845-2.18-2.405C53.232,220.212,53.929,218.529,53.929,218.529z"/>
				<path style="fill:#FFFFFF;" d="M59.748,229.293c0,0,1.15,1.413,1.055,3.07c-0.095,1.657-1.4,2.929-1.4,2.929
					s-1.15-1.414-1.055-3.07C58.444,230.565,59.748,229.293,59.748,229.293z"/>
				<path style="fill:#FFFFFF;" d="M59.44,213.269c0,0,1.15,1.414,1.055,3.07c-0.095,1.657-1.4,2.929-1.4,2.929
					s-1.15-1.413-1.055-3.07C58.135,214.541,59.44,213.269,59.44,213.269z"/>
				<path style="fill:#FFFFFF;" d="M46.379,247.448c0,0-0.182,1.813,0.809,3.144c0.991,1.331,2.78,1.676,2.78,1.676
					s0.182-1.813-0.809-3.144C48.169,247.792,46.379,247.448,46.379,247.448z"/>
				<path style="fill:#FFFFFF;" d="M42.989,257.309c0,0-0.182,1.813,0.809,3.144c0.991,1.331,2.78,1.676,2.78,1.676
					s0.182-1.813-0.809-3.144C44.779,257.654,42.989,257.309,42.989,257.309z"/>
				<path style="fill:#FFFFFF;" d="M51.988,260.889c0,0-0.183,1.813,0.808,3.144c0.991,1.331,2.78,1.676,2.78,1.676
					s0.182-1.813-0.809-3.144C53.777,261.234,51.988,260.889,51.988,260.889z"/>
				<path style="fill:#FFFFFF;" d="M54.448,247.225c0,0-0.694,1.685-0.126,3.244c0.568,1.559,2.184,2.402,2.184,2.402
					s0.694-1.685,0.126-3.244C56.063,248.068,54.448,247.225,54.448,247.225z"/>
				<path style="fill:#FFFFFF;" d="M48.076,283.583c0,0,1.822,0.033,3.067-1.064c1.245-1.097,1.442-2.908,1.442-2.908
					s-1.822-0.033-3.067,1.063C48.273,281.772,48.076,283.583,48.076,283.583z"/>
				<path style="fill:#FFFFFF;" d="M65.558,281.591c0,0,0.495,1.754,1.905,2.628c1.41,0.875,3.201,0.54,3.201,0.54
					s-0.495-1.754-1.905-2.629C67.349,281.255,65.558,281.591,65.558,281.591z"/>
				<path style="fill:#FFFFFF;" d="M50.108,238.357c0,0-0.182,1.813,0.809,3.144c0.991,1.331,2.78,1.676,2.78,1.676
					s0.183-1.813-0.808-3.144C51.898,238.702,50.108,238.357,50.108,238.357z"/>
				<path style="fill:#FFFFFF;" d="M50.077,230.345c0,0-0.182,1.813,0.808,3.144c0.991,1.331,2.78,1.676,2.78,1.676
					s0.182-1.813-0.809-3.144C51.867,230.69,50.077,230.345,50.077,230.345z"/>
			</g>
		</g>
	</g>
	<g>
		<g>
			<path style="fill:#92E3A9;" d="M92.993,282.506l-1.856-0.853c1.316,3.004,3.033,5.564,5.031,7.51
				c4.213-1.926,14.01-6.264,21.278-8.389l4.389-6.892c0.095-0.549,0.178-1.105,0.249-1.668l0.234-7.219
				c0,0-3.197,3.068-3.614,3.195c-0.365,0.112,2.255-9.874,2.911-12.356c-0.198-1.814-0.432-3.73-0.698-5.716l-4.02,2.095
				l3.058-4.73l-1.112-9.587l-2.085,0.895l1.512-4.663c-0.658-3.32-1.382-6.598-2.164-9.707l-1.989-4.674l-0.973,4.09l-0.131-9.774
				c-2.308-6.358-4.916-10.603-7.678-10.603c-3.334,0-6.444,6.184-9.073,14.809l-0.075,5.568l-0.696-2.925
				c-1.356,4.865-2.567,10.325-3.591,15.806l0.673,2.075l-0.976-0.419c-0.614,3.412-1.155,6.809-1.612,10.052l2.449,3.788
				l-2.768-1.443c-0.416,3.161-0.746,6.133-0.981,8.778c0.976,3.79,2.199,8.721,1.942,8.642c-0.24-0.074-1.403-1.123-2.346-2
				c-0.008,0.358-0.013,0.706-0.013,1.03c0,3.496,0.455,6.829,1.276,9.875L92.993,282.506z"/>
			<path style="fill:#263238;" d="M96.118,261.928l5.443,1.899l2.696,3.665l-0.472,11.222l-3.138-2.129l3.04,4.452l-0.122,4.876
				c0.791-0.333,1.605-0.671,2.437-1.01l-0.138-12.395l9.04-4.983l-5.168,1.911l1.037-3.111l-2.471,3.641l-2.467,0.912
				l-0.176-10.215l8.977-11.927l-4.811,4.811l0.814-3.345l-2.301,4.833l-2.729,2.728l-0.275-15.959l-0.978,23.275l-8.507-9.015
				l4.673,6.353L96.118,261.928z"/>
			<g>
				<path style="fill:#FFFFFF;" d="M114.726,241.856c0,0,0.158,1.568-0.699,2.719c-0.857,1.151-2.404,1.449-2.404,1.449
					s-0.158-1.568,0.699-2.719C113.179,242.154,114.726,241.856,114.726,241.856z"/>
				<path style="fill:#FFFFFF;" d="M119.869,249.083c0,0,0.158,1.568-0.699,2.719c-0.857,1.151-2.404,1.449-2.404,1.449
					s-0.158-1.568,0.699-2.719C118.322,249.381,119.869,249.083,119.869,249.083z"/>
				<path style="fill:#FFFFFF;" d="M119.867,263.153c0,0-0.379,1.529-1.574,2.325c-1.194,0.795-2.752,0.555-2.752,0.555
					s0.379-1.529,1.574-2.325C118.31,262.913,119.867,263.153,119.867,263.153z"/>
				<path style="fill:#FFFFFF;" d="M91.619,263.153c0,0,0.379,1.529,1.574,2.325c1.195,0.795,2.752,0.555,2.752,0.555
					s-0.379-1.529-1.574-2.325C93.176,262.913,91.619,263.153,91.619,263.153z"/>
				<path style="fill:#FFFFFF;" d="M113.926,257.313c0,0,0.158,1.568-0.699,2.719c-0.857,1.151-2.404,1.449-2.404,1.449
					s-0.158-1.568,0.699-2.719C112.379,257.611,113.926,257.313,113.926,257.313z"/>
				<path style="fill:#FFFFFF;" d="M112.594,233.994c0,0,0.158,1.568-0.699,2.719c-0.857,1.151-2.404,1.449-2.404,1.449
					s-0.158-1.568,0.699-2.719C111.047,234.292,112.594,233.994,112.594,233.994z"/>
				<path style="fill:#FFFFFF;" d="M109.529,239.99c0,0,0.158,1.568-0.699,2.719c-0.857,1.151-2.404,1.449-2.404,1.449
					s-0.158-1.568,0.699-2.719C107.982,240.289,109.529,239.99,109.529,239.99z"/>
				<path style="fill:#FFFFFF;" d="M116.805,235.624c0,0,0.158,1.568-0.699,2.719c-0.857,1.151-2.404,1.449-2.404,1.449
					s-0.158-1.568,0.699-2.719C115.257,235.923,116.805,235.624,116.805,235.624z"/>
				<path style="fill:#FFFFFF;" d="M93.163,235.624c0,0-0.158,1.568,0.699,2.719c0.857,1.151,2.404,1.449,2.404,1.449
					s0.158-1.568-0.699-2.719C94.71,235.923,93.163,235.624,93.163,235.624z"/>
				<path style="fill:#FFFFFF;" d="M113.26,226.666c0,0,0.158,1.568-0.699,2.719c-0.857,1.151-2.404,1.449-2.404,1.449
					s-0.158-1.568,0.699-2.719C111.713,226.964,113.26,226.666,113.26,226.666z"/>
				<path style="fill:#FFFFFF;" d="M111.754,218.881c0,0,0.547,1.478,0.006,2.807c-0.54,1.329-1.963,2.007-1.963,2.007
					s-0.547-1.478-0.006-2.807C110.331,219.558,111.754,218.881,111.754,218.881z"/>
				<path style="fill:#FFFFFF;" d="M100.962,216.846c0,0,1.396,0.731,1.885,2.08c0.489,1.349-0.113,2.805-0.113,2.805
					s-1.396-0.731-1.885-2.08C100.36,218.302,100.962,216.846,100.962,216.846z"/>
				<path style="fill:#FFFFFF;" d="M105.995,226.156c0,0,0.994,1.222,0.912,2.655c-0.082,1.433-1.21,2.533-1.21,2.533
					s-0.994-1.223-0.912-2.655C104.867,227.256,105.995,226.156,105.995,226.156z"/>
				<path style="fill:#FFFFFF;" d="M105.728,212.298c0,0,0.994,1.222,0.912,2.655c-0.082,1.433-1.21,2.533-1.21,2.533
					s-0.994-1.222-0.912-2.655C104.6,213.398,105.728,212.298,105.728,212.298z"/>
				<path style="fill:#FFFFFF;" d="M94.434,241.856c0,0-0.158,1.568,0.699,2.719c0.857,1.151,2.404,1.449,2.404,1.449
					s0.158-1.568-0.699-2.719C95.981,242.154,94.434,241.856,94.434,241.856z"/>
				<path style="fill:#FFFFFF;" d="M91.502,250.384c0,0-0.158,1.568,0.699,2.719c0.857,1.151,2.404,1.449,2.404,1.449
					s0.158-1.568-0.699-2.719C93.049,250.682,91.502,250.384,91.502,250.384z"/>
				<path style="fill:#FFFFFF;" d="M99.284,253.48c0,0-0.158,1.568,0.699,2.719c0.857,1.151,2.404,1.449,2.404,1.449
					s0.158-1.568-0.699-2.719C100.831,253.778,99.284,253.48,99.284,253.48z"/>
				<path style="fill:#FFFFFF;" d="M101.411,241.663c0,0-0.6,1.457-0.109,2.805c0.492,1.348,1.889,2.077,1.889,2.077
					s0.6-1.457,0.109-2.805C102.808,242.392,101.411,241.663,101.411,241.663z"/>
				<path style="fill:#FFFFFF;" d="M95.901,273.106c0,0,1.576,0.029,2.652-0.92c1.077-0.948,1.247-2.515,1.247-2.515
					s-1.576-0.029-2.652,0.92C96.071,271.54,95.901,273.106,95.901,273.106z"/>
				<path style="fill:#FFFFFF;" d="M111.019,271.383c0,0,0.428,1.517,1.647,2.273c1.219,0.757,2.768,0.467,2.768,0.467
					s-0.428-1.517-1.647-2.273C112.568,271.093,111.019,271.383,111.019,271.383z"/>
				<path style="fill:#FFFFFF;" d="M97.659,233.994c0,0-0.158,1.568,0.699,2.719c0.857,1.151,2.404,1.449,2.404,1.449
					s0.158-1.568-0.699-2.719C99.206,234.292,97.659,233.994,97.659,233.994z"/>
				<path style="fill:#FFFFFF;" d="M97.631,227.065c0,0-0.158,1.568,0.699,2.719c0.857,1.151,2.404,1.449,2.404,1.449
					s0.158-1.568-0.699-2.719C99.179,227.363,97.631,227.065,97.631,227.065z"/>
			</g>
		</g>
	</g>
</g>
<g id="Floor">
	<path style="fill:none;stroke:#263238;stroke-miterlimit:10;" d="M491.493,189.79c0,0-106.624-30.906-143.834-24.087
		c-27.953,5.122-39.659,12.061-53.868,23.113c-14.209,11.052-42.628,33.944-46.575,37.102c-3.947,3.158-34.444,20.305-51.311,26.05
		c-22.392,7.628-56.733,21.624-82.098,29.997c-30.84,10.181-57.627,31.576-64.731,38.681c-7.105,7.105-8.795,9.746-8.795,9.746"/>
	<g>
		<path style="fill:none;stroke:#263238;stroke-miterlimit:10;" d="M466.712,369.644c3.589-1.55,7.239-2.962,11.01-4.002"/>
		<path style="fill:none;stroke:#263238;stroke-miterlimit:10;" d="M13.553,327.75c0,0,27.629-2.368,75.783,20.525
			c57.514,27.343,117.407,52.474,180.803,61.956c41.016,6.135,85.186,5.94,124.673-7.973c22.136-7.799,42.954-19.238,64.24-29.146"
			/>
	</g>
</g>
<g id="Track_1">
	<g>
		<path style="fill:none;stroke:#263238;stroke-width:3;stroke-miterlimit:10;" d="M360.438,385.786
			c-9.856,2.665-22.861,4.878-39.288,6.5c-56.454,5.576-56.731,17.235-56.731,17.235"/>
		<path style="fill:none;stroke:#263238;stroke-width:3;stroke-miterlimit:10;" d="M246.686,316.352
			c68.929,39.681,120.209,29.668,133.705,43.874c7.042,7.412,5.806,14.43-5.384,20.216"/>
		<path style="fill:none;stroke:#263238;stroke-width:3;stroke-miterlimit:10;" d="M184.719,258.052c0,0,11.037,27.2,52.195,52.528"
			/>
		<path style="fill:none;stroke:#263238;stroke-width:3;stroke-miterlimit:10;" d="M377.469,382.786
			c0,2.131-4.874,3.858-10.886,3.858s-10.886-1.727-10.886-3.858c0-2.131,4.874-3.858,10.886-3.858S377.469,380.655,377.469,382.786
			z"/>
		
			<ellipse style="fill:none;stroke:#263238;stroke-width:3;stroke-miterlimit:10;" cx="242.013" cy="313.336" rx="5.374" ry="3.307"/>
	</g>
</g>
<g id="Trees_1">
	<g>
		<g>
			<path style="fill:#92E3A9;" d="M278.516,239.335l-3.536,1.626l6.352-9.973c0.11-0.635,0.206-1.278,0.289-1.929l0.271-8.348
				c0,0-3.697,3.547-4.179,3.695c-0.422,0.13,2.607-11.418,3.366-14.288c-0.229-2.097-0.499-4.313-0.807-6.61l-4.648,2.422
				l3.536-5.469l-1.286-11.085l-2.411,1.035l1.749-5.392c-0.761-3.839-1.599-7.63-2.503-11.225l-2.3-5.405l-1.125,4.73
				l-0.152-11.302c-2.669-7.352-5.685-12.26-8.879-12.26c-3.855,0-7.452,7.151-10.491,17.124l-0.087,6.438l-0.805-3.383
				c-1.568,5.626-2.968,11.939-4.152,18.277l0.778,2.399l-1.129-0.484c-0.71,3.946-1.335,7.873-1.864,11.624l2.832,4.38
				l-3.201-1.668c-0.481,3.655-0.863,7.092-1.134,10.15c1.128,4.383,2.543,10.084,2.246,9.993c-0.278-0.085-1.622-1.299-2.713-2.312
				c-0.009,0.415-0.015,0.817-0.015,1.191c0,4.043,0.527,7.897,1.475,11.419l3.985,6.256l-2.146-0.987
				c3.539,8.078,9.571,13.4,16.42,13.4c6.932,0,13.025-5.454,16.545-13.697L278.516,239.335z"/>
			<g>
				<polygon style="fill:#263238;" points="251.593,217.165 257.887,219.361 261.005,223.599 260.46,236.576 256.832,234.114 
					260.347,239.262 259.743,279.037 261.604,279.037 263.236,279.081 262.865,229.399 273.318,223.637 267.343,225.847 
					268.542,222.25 265.685,226.46 262.833,227.515 262.629,215.703 273.01,201.911 267.447,207.475 268.388,203.606 
					265.726,209.195 262.571,212.35 262.253,193.896 261.122,220.811 251.285,210.386 256.689,217.731 				"/>
			</g>
			<g>
				<path style="fill:#FFFFFF;" d="M273.109,193.955c0,0,0.183,1.813-0.808,3.144c-0.991,1.331-2.78,1.676-2.78,1.676
					s-0.183-1.813,0.808-3.144C271.32,194.3,273.109,193.955,273.109,193.955z"/>
				<path style="fill:#FFFFFF;" d="M279.057,202.311c0,0,0.183,1.813-0.808,3.144c-0.991,1.331-2.78,1.676-2.78,1.676
					s-0.183-1.813,0.809-3.144C277.268,202.656,279.057,202.311,279.057,202.311z"/>
				<path style="fill:#FFFFFF;" d="M279.055,218.582c0,0-0.438,1.769-1.82,2.688c-1.381,0.92-3.182,0.642-3.182,0.642
					s0.438-1.769,1.82-2.688C277.254,218.304,279.055,218.582,279.055,218.582z"/>
				<path style="fill:#FFFFFF;" d="M246.39,218.582c0,0,0.438,1.769,1.82,2.688c1.381,0.92,3.182,0.642,3.182,0.642
					s-0.438-1.769-1.82-2.688C248.191,218.304,246.39,218.582,246.39,218.582z"/>
				<path style="fill:#FFFFFF;" d="M272.185,211.828c0,0,0.182,1.813-0.809,3.144c-0.991,1.331-2.78,1.676-2.78,1.676
					s-0.183-1.813,0.809-3.144C270.396,212.173,272.185,211.828,272.185,211.828z"/>
				<path style="fill:#FFFFFF;" d="M270.644,184.864c0,0,0.182,1.813-0.809,3.144c-0.991,1.331-2.78,1.676-2.78,1.676
					s-0.182-1.813,0.809-3.144C268.855,185.209,270.644,184.864,270.644,184.864z"/>
				<path style="fill:#FFFFFF;" d="M267.1,191.798c0,0,0.183,1.813-0.809,3.144c-0.991,1.331-2.78,1.676-2.78,1.676
					s-0.182-1.813,0.809-3.144C265.311,192.143,267.1,191.798,267.1,191.798z"/>
				<path style="fill:#FFFFFF;" d="M275.513,186.749c0,0,0.182,1.813-0.809,3.144c-0.991,1.331-2.78,1.676-2.78,1.676
					s-0.182-1.813,0.809-3.144C273.724,187.094,275.513,186.749,275.513,186.749z"/>
				<path style="fill:#FFFFFF;" d="M248.175,186.749c0,0-0.183,1.813,0.808,3.144c0.991,1.331,2.78,1.676,2.78,1.676
					s0.183-1.813-0.809-3.144C249.964,187.094,248.175,186.749,248.175,186.749z"/>
				<path style="fill:#FFFFFF;" d="M271.415,176.39c0,0,0.183,1.813-0.808,3.144c-0.991,1.331-2.78,1.676-2.78,1.676
					s-0.182-1.813,0.808-3.144C269.625,176.735,271.415,176.39,271.415,176.39z"/>
				<path style="fill:#FFFFFF;" d="M269.673,167.388c0,0,0.632,1.709,0.007,3.246c-0.625,1.537-2.27,2.321-2.27,2.321
					s-0.632-1.709-0.007-3.246C268.028,168.171,269.673,167.388,269.673,167.388z"/>
				<path style="fill:#FFFFFF;" d="M257.194,165.036c0,0,1.614,0.845,2.18,2.405c0.566,1.56-0.131,3.243-0.131,3.243
					s-1.614-0.845-2.18-2.405C256.497,166.719,257.194,165.036,257.194,165.036z"/>
				<path style="fill:#FFFFFF;" d="M263.013,175.8c0,0,1.15,1.414,1.055,3.07c-0.095,1.657-1.4,2.929-1.4,2.929
					s-1.15-1.414-1.055-3.07C261.709,177.073,263.013,175.8,263.013,175.8z"/>
				<path style="fill:#FFFFFF;" d="M262.705,159.776c0,0,1.15,1.414,1.055,3.07s-1.4,2.929-1.4,2.929s-1.15-1.414-1.055-3.07
					C261.401,161.048,262.705,159.776,262.705,159.776z"/>
				<path style="fill:#FFFFFF;" d="M249.645,193.955c0,0-0.183,1.813,0.809,3.144c0.991,1.331,2.78,1.676,2.78,1.676
					s0.182-1.813-0.809-3.144C251.434,194.3,249.645,193.955,249.645,193.955z"/>
				<path style="fill:#FFFFFF;" d="M246.255,203.816c0,0-0.182,1.813,0.809,3.144c0.991,1.331,2.78,1.676,2.78,1.676
					s0.182-1.813-0.809-3.144C248.044,204.161,246.255,203.816,246.255,203.816z"/>
				<path style="fill:#FFFFFF;" d="M255.253,207.396c0,0-0.183,1.813,0.809,3.144c0.991,1.331,2.78,1.676,2.78,1.676
					s0.182-1.813-0.809-3.144C257.042,207.741,255.253,207.396,255.253,207.396z"/>
				<path style="fill:#FFFFFF;" d="M257.713,193.732c0,0-0.694,1.685-0.126,3.244c0.568,1.559,2.184,2.402,2.184,2.402
					s0.694-1.685,0.126-3.244C259.328,194.575,257.713,193.732,257.713,193.732z"/>
				<path style="fill:#FFFFFF;" d="M251.341,230.091c0,0,1.822,0.033,3.067-1.063c1.245-1.097,1.442-2.908,1.442-2.908
					s-1.822-0.033-3.067,1.063C251.538,228.279,251.341,230.091,251.341,230.091z"/>
				<path style="fill:#FFFFFF;" d="M268.823,228.098c0,0,0.495,1.754,1.905,2.628c1.41,0.875,3.201,0.54,3.201,0.54
					s-0.495-1.754-1.905-2.629C270.615,227.763,268.823,228.098,268.823,228.098z"/>
				<path style="fill:#FFFFFF;" d="M253.374,184.864c0,0-0.182,1.813,0.809,3.144c0.991,1.331,2.78,1.676,2.78,1.676
					s0.183-1.813-0.808-3.144C255.163,185.209,253.374,184.864,253.374,184.864z"/>
				<path style="fill:#FFFFFF;" d="M253.343,176.852c0,0-0.182,1.813,0.808,3.144c0.991,1.331,2.78,1.676,2.78,1.676
					s0.183-1.813-0.809-3.144C255.132,177.197,253.343,176.852,253.343,176.852z"/>
			</g>
		</g>
	</g>
	<g>
		<path style="fill:#92E3A9;" d="M236.536,269.367c0,0-0.676-12.397,7.664-14.651c8.34-2.254,10.369,5.635,10.369,10.594
			c0,4.959,3.606-0.225,6.537,1.578c2.93,1.803,3.381,5.184,2.705,8.34c-0.676,3.156,2.93-0.451,4.959,2.705
			c2.029,3.156,0.676,4.057,0.225,4.959c-0.451,0.902,9.242,2.479,9.242,2.479h-63.79c0,0,8.271-0.11,6.988-3.832
			c-2.254-6.537,2.254-11.496,5.41-11.947s3.607,2.479,6.988,2.705C237.212,272.523,236.536,269.367,236.536,269.367z"/>
		<path style="fill:#FFFFFF;" d="M240.657,264.87c0,0,0.446,1.581,1.718,2.37c1.271,0.789,2.886,0.487,2.886,0.487
			s-0.446-1.581-1.718-2.37C242.272,264.568,240.657,264.87,240.657,264.87z"/>
		<path style="fill:#FFFFFF;" d="M249.081,268.09c0,0,1.638-0.125,2.663-1.216c1.024-1.091,1.047-2.733,1.047-2.733
			s-1.638,0.125-2.663,1.216C249.104,266.447,249.081,268.09,249.081,268.09z"/>
		<path style="fill:#FFFFFF;" d="M247.397,278.504c0,0,1.638-0.125,2.663-1.216c1.024-1.091,1.047-2.733,1.047-2.733
			s-1.638,0.125-2.663,1.216C247.419,276.861,247.397,278.504,247.397,278.504z"/>
		<path style="fill:#FFFFFF;" d="M238.456,271.256c0,0,0.446,1.581,1.718,2.37c1.271,0.789,2.886,0.487,2.886,0.487
			s-0.446-1.581-1.718-2.37C240.072,270.954,238.456,271.256,238.456,271.256z"/>
		<path style="fill:#FFFFFF;" d="M225.987,281.693c0,0,1.127,1.196,2.619,1.308c1.492,0.112,2.785-0.902,2.785-0.902
			s-1.127-1.196-2.619-1.308S225.987,281.693,225.987,281.693z"/>
		<path style="fill:#FFFFFF;" d="M248.693,258.3c0,0-1.387,0.881-1.779,2.325c-0.392,1.444,0.361,2.905,0.361,2.905
			s1.387-0.881,1.779-2.325C249.446,259.761,248.693,258.3,248.693,258.3z"/>
		<path style="fill:#FFFFFF;" d="M256.151,268.985c0,0-0.833,1.417-0.522,2.88c0.31,1.464,1.646,2.42,1.646,2.42
			s0.833-1.417,0.522-2.88C257.487,269.942,256.151,268.985,256.151,268.985z"/>
		<path style="fill:#FFFFFF;" d="M262.761,279.499c0,0-1.366-0.914-2.845-0.69c-1.48,0.224-2.513,1.502-2.513,1.502
			s1.366,0.914,2.845,0.689C261.728,280.776,262.761,279.499,262.761,279.499z"/>
		<path style="fill:#FFFFFF;" d="M233.889,276.976c0,0-0.276-1.62-1.456-2.539s-2.818-0.79-2.818-0.79s0.276,1.62,1.456,2.539
			C232.251,277.105,233.889,276.976,233.889,276.976z"/>
	</g>
	<g>
		<g>
			<path style="fill:#92E3A9;" d="M332.433,263.766l3.536,1.626l-6.352-9.973c-0.11-0.635-0.206-1.278-0.288-1.929l-0.271-8.348
				c0,0,3.697,3.547,4.179,3.695c0.422,0.13-2.607-11.418-3.366-14.288c0.229-2.097,0.499-4.313,0.807-6.61l4.648,2.422
				l-3.536-5.469l1.286-11.085l2.411,1.035l-1.749-5.392c0.761-3.839,1.599-7.63,2.503-11.225l2.3-5.405l1.125,4.73l0.152-11.302
				c2.669-7.352,5.685-12.26,8.879-12.26c3.855,0,7.452,7.151,10.491,17.124l0.087,6.438l0.805-3.383
				c1.568,5.626,2.968,11.939,4.152,18.277l-0.778,2.399l1.128-0.484c0.71,3.946,1.335,7.873,1.864,11.624l-2.832,4.38l3.201-1.668
				c0.481,3.655,0.863,7.092,1.134,10.15c-1.128,4.383-2.543,10.084-2.246,9.993c0.278-0.085,1.622-1.298,2.712-2.312
				c0.009,0.415,0.015,0.817,0.015,1.191c0,4.043-0.526,7.897-1.475,11.419l-3.985,6.256l2.146-0.987
				c-3.539,8.078-9.571,13.4-16.42,13.4c-6.932,0-13.025-5.454-16.545-13.697L332.433,263.766z"/>
			<g>
				<polygon style="fill:#263238;" points="359.356,241.596 353.062,243.792 349.944,248.03 350.489,261.007 354.117,258.545 
					350.602,263.692 351.206,303.468 349.345,303.468 347.713,303.512 348.084,253.83 337.631,248.068 343.606,250.278 
					342.408,246.681 345.264,250.891 348.116,251.946 348.32,240.134 337.939,226.342 343.503,231.906 342.562,228.037 
					345.223,233.626 348.378,236.781 348.696,218.327 349.827,245.242 359.664,234.817 354.261,242.162 				"/>
			</g>
			<g>
				<path style="fill:#FFFFFF;" d="M337.84,218.386c0,0-0.183,1.813,0.808,3.144c0.991,1.331,2.78,1.676,2.78,1.676
					s0.183-1.813-0.808-3.144C339.629,218.731,337.84,218.386,337.84,218.386z"/>
				<path style="fill:#FFFFFF;" d="M331.892,226.742c0,0-0.183,1.813,0.808,3.144c0.991,1.331,2.78,1.676,2.78,1.676
					s0.183-1.813-0.809-3.144C333.681,227.087,331.892,226.742,331.892,226.742z"/>
				<path style="fill:#FFFFFF;" d="M331.895,243.013c0,0,0.438,1.769,1.82,2.688c1.381,0.92,3.182,0.642,3.182,0.642
					s-0.438-1.769-1.82-2.688C333.695,242.735,331.895,243.013,331.895,243.013z"/>
				<path style="fill:#FFFFFF;" d="M364.559,243.013c0,0-0.438,1.769-1.82,2.688c-1.381,0.92-3.182,0.642-3.182,0.642
					s0.438-1.769,1.82-2.688C362.758,242.735,364.559,243.013,364.559,243.013z"/>
				<path style="fill:#FFFFFF;" d="M338.764,236.259c0,0-0.182,1.813,0.809,3.144c0.991,1.331,2.78,1.676,2.78,1.676
					s0.183-1.813-0.809-3.144C340.553,236.604,338.764,236.259,338.764,236.259z"/>
				<path style="fill:#FFFFFF;" d="M340.305,209.295c0,0-0.182,1.813,0.809,3.144c0.991,1.331,2.78,1.676,2.78,1.676
					s0.182-1.813-0.809-3.144C342.094,209.64,340.305,209.295,340.305,209.295z"/>
				<path style="fill:#FFFFFF;" d="M343.849,216.229c0,0-0.183,1.813,0.809,3.144c0.991,1.331,2.78,1.676,2.78,1.676
					s0.182-1.813-0.809-3.144C345.638,216.574,343.849,216.229,343.849,216.229z"/>
				<path style="fill:#FFFFFF;" d="M335.436,211.18c0,0-0.182,1.813,0.809,3.144c0.991,1.331,2.78,1.676,2.78,1.676
					s0.182-1.813-0.809-3.144C337.225,211.525,335.436,211.18,335.436,211.18z"/>
				<path style="fill:#FFFFFF;" d="M362.774,211.18c0,0,0.182,1.813-0.809,3.144c-0.991,1.331-2.78,1.676-2.78,1.676
					s-0.182-1.813,0.809-3.144C360.985,211.525,362.774,211.18,362.774,211.18z"/>
				<path style="fill:#FFFFFF;" d="M339.535,200.821c0,0-0.183,1.813,0.808,3.144c0.991,1.331,2.78,1.676,2.78,1.676
					s0.182-1.813-0.808-3.144C341.324,201.166,339.535,200.821,339.535,200.821z"/>
				<path style="fill:#FFFFFF;" d="M341.276,191.819c0,0-0.632,1.709-0.007,3.246c0.625,1.537,2.27,2.32,2.27,2.32
					s0.632-1.709,0.007-3.246C342.921,192.602,341.276,191.819,341.276,191.819z"/>
				<path style="fill:#FFFFFF;" d="M353.755,189.467c0,0-1.614,0.845-2.18,2.405c-0.566,1.56,0.131,3.243,0.131,3.243
					s1.614-0.845,2.18-2.405C354.452,191.15,353.755,189.467,353.755,189.467z"/>
				<path style="fill:#FFFFFF;" d="M347.936,200.231c0,0-1.15,1.413-1.055,3.07c0.095,1.657,1.4,2.929,1.4,2.929
					s1.15-1.414,1.055-3.07C349.24,201.503,347.936,200.231,347.936,200.231z"/>
				<path style="fill:#FFFFFF;" d="M348.244,184.207c0,0-1.15,1.414-1.055,3.07s1.4,2.929,1.4,2.929s1.15-1.413,1.055-3.07
					C349.548,185.479,348.244,184.207,348.244,184.207z"/>
				<path style="fill:#FFFFFF;" d="M361.305,218.386c0,0,0.183,1.813-0.809,3.144c-0.991,1.331-2.78,1.676-2.78,1.676
					s-0.182-1.813,0.809-3.144C359.515,218.731,361.305,218.386,361.305,218.386z"/>
				<path style="fill:#FFFFFF;" d="M364.694,228.247c0,0,0.182,1.813-0.809,3.144c-0.991,1.331-2.78,1.676-2.78,1.676
					s-0.182-1.813,0.809-3.144C362.905,228.592,364.694,228.247,364.694,228.247z"/>
				<path style="fill:#FFFFFF;" d="M355.696,231.827c0,0,0.182,1.813-0.809,3.144c-0.991,1.331-2.78,1.676-2.78,1.676
					s-0.182-1.813,0.809-3.144C353.907,232.172,355.696,231.827,355.696,231.827z"/>
				<path style="fill:#FFFFFF;" d="M353.236,218.163c0,0,0.694,1.685,0.126,3.244c-0.568,1.559-2.184,2.402-2.184,2.402
					s-0.694-1.685-0.126-3.244C351.621,219.006,353.236,218.163,353.236,218.163z"/>
				<path style="fill:#FFFFFF;" d="M359.608,254.522c0,0-1.822,0.033-3.067-1.063c-1.245-1.097-1.442-2.908-1.442-2.908
					s1.822-0.033,3.067,1.063C359.411,252.71,359.608,254.522,359.608,254.522z"/>
				<path style="fill:#FFFFFF;" d="M342.126,252.529c0,0-0.495,1.754-1.905,2.629c-1.41,0.875-3.201,0.54-3.201,0.54
					s0.495-1.754,1.905-2.628C340.335,252.194,342.126,252.529,342.126,252.529z"/>
				<path style="fill:#FFFFFF;" d="M357.575,209.295c0,0,0.182,1.813-0.809,3.144c-0.991,1.331-2.78,1.676-2.78,1.676
					s-0.183-1.813,0.808-3.144C355.786,209.64,357.575,209.295,357.575,209.295z"/>
				<path style="fill:#FFFFFF;" d="M357.607,201.283c0,0,0.182,1.813-0.808,3.144c-0.991,1.331-2.78,1.676-2.78,1.676
					s-0.183-1.813,0.809-3.144C355.817,201.628,357.607,201.283,357.607,201.283z"/>
			</g>
		</g>
	</g>
	<g>
		<g>
			<path style="fill:#92E3A9;" d="M393.679,163.39l-3.536,1.626l6.352-9.973c0.11-0.635,0.206-1.278,0.288-1.929l0.271-8.348
				c0,0-3.697,3.547-4.179,3.695c-0.422,0.129,2.607-11.418,3.366-14.288c-0.229-2.097-0.499-4.313-0.807-6.61l-4.648,2.422
				l3.536-5.469l-1.286-11.085l-2.411,1.035l1.749-5.392c-0.761-3.839-1.599-7.63-2.503-11.225l-2.3-5.405l-1.125,4.73
				l-0.152-11.302c-2.669-7.352-5.685-12.26-8.879-12.26c-3.855,0-7.452,7.151-10.491,17.124l-0.087,6.438l-0.805-3.383
				c-1.568,5.626-2.968,11.939-4.152,18.277l0.778,2.399l-1.128-0.484c-0.71,3.946-1.335,7.873-1.864,11.624l2.832,4.38
				l-3.201-1.668c-0.481,3.655-0.863,7.091-1.134,10.15c1.128,4.383,2.543,10.084,2.246,9.993c-0.278-0.085-1.622-1.299-2.712-2.312
				c-0.009,0.415-0.015,0.817-0.015,1.191c0,4.043,0.526,7.897,1.475,11.419l3.985,6.256l-2.146-0.987
				c3.539,8.078,9.571,13.4,16.42,13.4c6.932,0,13.025-5.454,16.545-13.697L393.679,163.39z"/>
			<g>
				<polygon style="fill:#263238;" points="366.756,141.221 373.05,143.416 376.168,147.655 375.623,160.631 371.995,158.169 
					375.51,163.317 374.906,203.092 376.767,203.092 378.399,203.136 378.028,153.454 388.481,147.692 382.506,149.902 
					383.705,146.305 380.848,150.515 377.996,151.57 377.792,139.759 388.173,125.967 382.61,131.53 383.551,127.662 
					380.889,133.251 377.734,136.406 377.416,117.952 376.285,144.866 366.448,134.441 371.852,141.787 				"/>
			</g>
			<g>
				<path style="fill:#FFFFFF;" d="M388.272,118.01c0,0,0.183,1.813-0.808,3.144c-0.991,1.331-2.78,1.676-2.78,1.676
					s-0.183-1.813,0.808-3.144C386.483,118.355,388.272,118.01,388.272,118.01z"/>
				<path style="fill:#FFFFFF;" d="M394.22,126.367c0,0,0.183,1.813-0.808,3.144c-0.991,1.331-2.78,1.676-2.78,1.676
					s-0.182-1.813,0.809-3.144C392.431,126.712,394.22,126.367,394.22,126.367z"/>
				<path style="fill:#FFFFFF;" d="M394.218,142.637c0,0-0.438,1.769-1.82,2.688c-1.381,0.92-3.182,0.642-3.182,0.642
					s0.438-1.769,1.82-2.688C392.417,142.359,394.218,142.637,394.218,142.637z"/>
				<path style="fill:#FFFFFF;" d="M361.553,142.637c0,0,0.439,1.769,1.82,2.688c1.381,0.92,3.182,0.642,3.182,0.642
					s-0.438-1.769-1.82-2.688C363.354,142.359,361.553,142.637,361.553,142.637z"/>
				<path style="fill:#FFFFFF;" d="M387.348,135.883c0,0,0.182,1.813-0.809,3.144c-0.991,1.331-2.78,1.676-2.78,1.676
					s-0.182-1.813,0.809-3.144C385.559,136.228,387.348,135.883,387.348,135.883z"/>
				<path style="fill:#FFFFFF;" d="M385.807,108.92c0,0,0.182,1.813-0.809,3.144c-0.991,1.331-2.78,1.676-2.78,1.676
					s-0.183-1.813,0.808-3.144C384.018,109.264,385.807,108.92,385.807,108.92z"/>
				<path style="fill:#FFFFFF;" d="M382.263,115.853c0,0,0.183,1.813-0.809,3.144c-0.991,1.331-2.78,1.676-2.78,1.676
					s-0.182-1.813,0.809-3.144C380.474,116.198,382.263,115.853,382.263,115.853z"/>
				<path style="fill:#FFFFFF;" d="M390.676,110.805c0,0,0.182,1.813-0.809,3.144c-0.991,1.331-2.78,1.676-2.78,1.676
					s-0.182-1.813,0.809-3.144C388.887,111.15,390.676,110.805,390.676,110.805z"/>
				<path style="fill:#FFFFFF;" d="M363.338,110.805c0,0-0.182,1.813,0.809,3.144c0.991,1.331,2.78,1.676,2.78,1.676
					s0.182-1.813-0.809-3.144C365.128,111.15,363.338,110.805,363.338,110.805z"/>
				<path style="fill:#FFFFFF;" d="M386.578,100.445c0,0,0.182,1.813-0.808,3.144c-0.991,1.331-2.78,1.676-2.78,1.676
					s-0.182-1.813,0.808-3.144S386.578,100.445,386.578,100.445z"/>
				<path style="fill:#FFFFFF;" d="M384.836,91.443c0,0,0.632,1.709,0.007,3.246c-0.625,1.537-2.27,2.321-2.27,2.321
					s-0.632-1.709-0.007-3.246C383.191,92.227,384.836,91.443,384.836,91.443z"/>
				<path style="fill:#FFFFFF;" d="M372.357,89.091c0,0,1.614,0.845,2.18,2.405c0.566,1.56-0.131,3.243-0.131,3.243
					s-1.614-0.845-2.18-2.405C371.66,90.775,372.357,89.091,372.357,89.091z"/>
				<path style="fill:#FFFFFF;" d="M378.176,99.856c0,0,1.15,1.413,1.055,3.07c-0.095,1.657-1.4,2.929-1.4,2.929
					s-1.15-1.414-1.055-3.07C376.872,101.128,378.176,99.856,378.176,99.856z"/>
				<path style="fill:#FFFFFF;" d="M377.868,83.831c0,0,1.15,1.414,1.055,3.07c-0.095,1.657-1.4,2.929-1.4,2.929
					s-1.15-1.413-1.055-3.07C376.564,85.104,377.868,83.831,377.868,83.831z"/>
				<path style="fill:#FFFFFF;" d="M364.808,118.01c0,0-0.183,1.813,0.809,3.144c0.991,1.331,2.78,1.676,2.78,1.676
					s0.182-1.813-0.809-3.144C366.597,118.355,364.808,118.01,364.808,118.01z"/>
				<path style="fill:#FFFFFF;" d="M361.418,127.871c0,0-0.182,1.813,0.809,3.144c0.991,1.331,2.78,1.676,2.78,1.676
					s0.182-1.813-0.809-3.144C363.207,128.216,361.418,127.871,361.418,127.871z"/>
				<path style="fill:#FFFFFF;" d="M370.416,131.451c0,0-0.182,1.813,0.809,3.144c0.991,1.331,2.78,1.676,2.78,1.676
					s0.182-1.813-0.809-3.144C372.205,131.796,370.416,131.451,370.416,131.451z"/>
				<path style="fill:#FFFFFF;" d="M372.876,117.788c0,0-0.694,1.685-0.126,3.244c0.568,1.559,2.184,2.402,2.184,2.402
					s0.694-1.685,0.126-3.244C374.491,118.631,372.876,117.788,372.876,117.788z"/>
				<path style="fill:#FFFFFF;" d="M366.504,154.146c0,0,1.822,0.033,3.067-1.064c1.245-1.097,1.442-2.908,1.442-2.908
					s-1.822-0.033-3.067,1.064S366.504,154.146,366.504,154.146z"/>
				<path style="fill:#FFFFFF;" d="M383.987,152.153c0,0,0.495,1.754,1.905,2.629c1.41,0.875,3.201,0.54,3.201,0.54
					s-0.495-1.754-1.905-2.629C385.778,151.818,383.987,152.153,383.987,152.153z"/>
				<path style="fill:#FFFFFF;" d="M368.537,108.92c0,0-0.183,1.813,0.809,3.144c0.991,1.331,2.78,1.676,2.78,1.676
					s0.183-1.813-0.808-3.144C370.326,109.264,368.537,108.92,368.537,108.92z"/>
				<path style="fill:#FFFFFF;" d="M368.506,100.908c0,0-0.182,1.813,0.808,3.144c0.991,1.331,2.78,1.676,2.78,1.676
					s0.183-1.813-0.808-3.144C370.295,101.252,368.506,100.908,368.506,100.908z"/>
			</g>
		</g>
	</g>
	<g>
		<path style="fill:#92E3A9;" d="M378.844,196.363c0,0-0.676-12.397,7.664-14.652c8.34-2.254,10.369,5.635,10.369,10.594
			c0,4.959,3.607-0.225,6.537,1.578c2.93,1.803,3.381,5.184,2.705,8.34c-0.676,3.156,2.93-0.451,4.959,2.705
			c2.029,3.156,0.676,4.057,0.225,4.959c-0.451,0.902,9.242,2.479,9.242,2.479h-63.79c0,0,8.271-0.11,6.988-3.832
			c-2.254-6.537,2.254-11.496,5.41-11.946c3.156-0.451,3.607,2.479,6.988,2.705C379.52,199.519,378.844,196.363,378.844,196.363z"/>
		<path style="fill:#FFFFFF;" d="M382.965,191.866c0,0,0.446,1.581,1.718,2.37c1.271,0.789,2.886,0.487,2.886,0.487
			s-0.446-1.581-1.718-2.37S382.965,191.866,382.965,191.866z"/>
		<path style="fill:#FFFFFF;" d="M391.389,195.086c0,0,1.638-0.125,2.663-1.216c1.025-1.091,1.047-2.734,1.047-2.734
			s-1.638,0.125-2.663,1.216C391.412,193.443,391.389,195.086,391.389,195.086z"/>
		<path style="fill:#FFFFFF;" d="M389.705,205.5c0,0,1.638-0.125,2.663-1.216c1.025-1.091,1.047-2.734,1.047-2.734
			s-1.638,0.125-2.663,1.216C389.727,203.857,389.705,205.5,389.705,205.5z"/>
		<path style="fill:#FFFFFF;" d="M380.764,198.252c0,0,0.446,1.581,1.718,2.37c1.271,0.789,2.886,0.487,2.886,0.487
			s-0.446-1.581-1.718-2.37C382.379,197.949,380.764,198.252,380.764,198.252z"/>
		<path style="fill:#FFFFFF;" d="M368.295,208.689c0,0,1.127,1.196,2.619,1.308c1.492,0.112,2.785-0.902,2.785-0.902
			s-1.127-1.196-2.619-1.308C369.587,207.674,368.295,208.689,368.295,208.689z"/>
		<path style="fill:#FFFFFF;" d="M391.001,185.296c0,0-1.387,0.881-1.779,2.325c-0.392,1.444,0.361,2.905,0.361,2.905
			s1.387-0.881,1.779-2.325C391.754,186.757,391.001,185.296,391.001,185.296z"/>
		<path style="fill:#FFFFFF;" d="M398.46,195.981c0,0-0.833,1.416-0.522,2.88c0.31,1.464,1.646,2.421,1.646,2.421
			s0.833-1.417,0.522-2.88C399.796,196.938,398.46,195.981,398.46,195.981z"/>
		<path style="fill:#FFFFFF;" d="M405.069,206.495c0,0-1.366-0.914-2.845-0.689c-1.479,0.224-2.512,1.502-2.512,1.502
			s1.365,0.914,2.845,0.69C404.036,207.772,405.069,206.495,405.069,206.495z"/>
		<path style="fill:#FFFFFF;" d="M376.197,203.971c0,0-0.276-1.62-1.456-2.539c-1.18-0.92-2.818-0.79-2.818-0.79
			s0.276,1.62,1.456,2.539C374.559,204.1,376.197,203.971,376.197,203.971z"/>
	</g>
	<g>
		<g>
			<path style="fill:#92E3A9;" d="M164.945,300.831l3.536,1.626l-6.352-9.972c-0.11-0.635-0.206-1.278-0.288-1.929l-0.271-8.348
				c0,0,3.697,3.547,4.179,3.695c0.422,0.13-2.607-11.418-3.366-14.288c0.229-2.097,0.499-4.313,0.807-6.61l4.648,2.422
				l-3.536-5.469l1.286-11.085l2.411,1.035l-1.749-5.393c0.761-3.839,1.599-7.63,2.503-11.225l2.3-5.405l1.125,4.73l0.152-11.302
				c2.669-7.352,5.685-12.26,8.879-12.26c3.855,0,7.452,7.151,10.491,17.124l0.087,6.438l0.805-3.383
				c1.568,5.626,2.968,11.939,4.152,18.277l-0.778,2.399l1.128-0.484c0.71,3.946,1.335,7.873,1.864,11.624l-2.832,4.38l3.201-1.668
				c0.481,3.655,0.863,7.092,1.134,10.151c-1.128,4.383-2.543,10.084-2.246,9.993c0.278-0.085,1.622-1.298,2.712-2.312
				c0.009,0.414,0.015,0.817,0.015,1.191c0,4.043-0.527,7.897-1.475,11.419l-3.985,6.256l2.146-0.987
				c-3.538,8.078-9.571,13.4-16.42,13.4c-6.932,0-13.025-5.454-16.545-13.697L164.945,300.831z"/>
			<g>
				<polygon style="fill:#263238;" points="191.868,278.662 185.574,280.858 182.456,285.096 183.001,298.072 186.629,295.611 
					183.114,300.758 183.718,340.534 181.857,340.534 180.225,340.577 180.596,290.896 170.143,285.133 176.118,287.343 
					174.92,283.746 177.776,287.956 180.629,289.011 180.832,277.2 170.451,263.408 176.015,268.971 175.074,265.103 
					177.735,270.692 180.89,273.847 181.208,255.393 182.339,282.307 192.176,271.882 186.773,279.228 				"/>
			</g>
			<g>
				<path style="fill:#FFFFFF;" d="M170.352,255.451c0,0-0.182,1.813,0.809,3.144c0.991,1.331,2.78,1.676,2.78,1.676
					s0.183-1.813-0.808-3.144C172.141,255.796,170.352,255.451,170.352,255.451z"/>
				<path style="fill:#FFFFFF;" d="M164.404,263.808c0,0-0.182,1.813,0.808,3.144c0.991,1.331,2.78,1.676,2.78,1.676
					s0.182-1.813-0.809-3.144S164.404,263.808,164.404,263.808z"/>
				<path style="fill:#FFFFFF;" d="M164.407,280.078c0,0,0.438,1.769,1.82,2.688c1.381,0.92,3.182,0.642,3.182,0.642
					s-0.438-1.769-1.82-2.688C166.208,279.801,164.407,280.078,164.407,280.078z"/>
				<path style="fill:#FFFFFF;" d="M197.071,280.078c0,0-0.438,1.769-1.82,2.688c-1.381,0.92-3.182,0.642-3.182,0.642
					s0.438-1.769,1.82-2.688C195.27,279.801,197.071,280.078,197.071,280.078z"/>
				<path style="fill:#FFFFFF;" d="M171.276,273.324c0,0-0.182,1.813,0.809,3.144c0.991,1.331,2.78,1.676,2.78,1.676
					s0.183-1.813-0.808-3.144C173.065,273.669,171.276,273.324,171.276,273.324z"/>
				<path style="fill:#FFFFFF;" d="M172.817,246.361c0,0-0.183,1.813,0.809,3.144c0.991,1.331,2.78,1.676,2.78,1.676
					s0.182-1.813-0.809-3.144C174.606,246.706,172.817,246.361,172.817,246.361z"/>
				<path style="fill:#FFFFFF;" d="M176.361,253.294c0,0-0.182,1.813,0.809,3.144c0.991,1.331,2.78,1.676,2.78,1.676
					s0.182-1.813-0.809-3.144C178.15,253.639,176.361,253.294,176.361,253.294z"/>
				<path style="fill:#FFFFFF;" d="M167.948,248.246c0,0-0.182,1.813,0.809,3.144c0.991,1.331,2.78,1.676,2.78,1.676
					s0.183-1.813-0.808-3.144C169.737,248.591,167.948,248.246,167.948,248.246z"/>
				<path style="fill:#FFFFFF;" d="M195.286,248.246c0,0,0.182,1.813-0.808,3.144c-0.991,1.331-2.78,1.676-2.78,1.676
					s-0.182-1.813,0.809-3.144C193.497,248.591,195.286,248.246,195.286,248.246z"/>
				<path style="fill:#FFFFFF;" d="M172.047,237.886c0,0-0.182,1.813,0.808,3.144c0.991,1.331,2.78,1.676,2.78,1.676
					s0.182-1.813-0.809-3.144C173.836,238.231,172.047,237.886,172.047,237.886z"/>
				<path style="fill:#FFFFFF;" d="M173.788,228.885c0,0-0.632,1.709-0.007,3.246c0.625,1.537,2.27,2.32,2.27,2.32
					s0.632-1.709,0.007-3.246S173.788,228.885,173.788,228.885z"/>
				<path style="fill:#FFFFFF;" d="M186.267,226.532c0,0-1.614,0.846-2.18,2.405c-0.566,1.56,0.131,3.243,0.131,3.243
					s1.614-0.845,2.18-2.405C186.964,228.216,186.267,226.532,186.267,226.532z"/>
				<path style="fill:#FFFFFF;" d="M180.448,237.297c0,0-1.15,1.413-1.054,3.07c0.095,1.657,1.4,2.929,1.4,2.929
					s1.15-1.414,1.055-3.07C181.752,238.569,180.448,237.297,180.448,237.297z"/>
				<path style="fill:#FFFFFF;" d="M180.756,221.273c0,0-1.15,1.414-1.055,3.07c0.095,1.657,1.4,2.929,1.4,2.929
					s1.15-1.413,1.055-3.07C182.06,222.545,180.756,221.273,180.756,221.273z"/>
				<path style="fill:#FFFFFF;" d="M193.817,255.451c0,0,0.183,1.813-0.808,3.144c-0.991,1.331-2.78,1.676-2.78,1.676
					s-0.182-1.813,0.809-3.144C192.027,255.796,193.817,255.451,193.817,255.451z"/>
				<path style="fill:#FFFFFF;" d="M197.206,265.312c0,0,0.182,1.813-0.809,3.144c-0.991,1.331-2.78,1.676-2.78,1.676
					s-0.183-1.813,0.809-3.144C195.417,265.657,197.206,265.312,197.206,265.312z"/>
				<path style="fill:#FFFFFF;" d="M188.208,268.892c0,0,0.183,1.813-0.808,3.144c-0.991,1.331-2.78,1.676-2.78,1.676
					s-0.182-1.813,0.809-3.144C186.419,269.237,188.208,268.892,188.208,268.892z"/>
				<path style="fill:#FFFFFF;" d="M185.748,255.229c0,0,0.694,1.685,0.126,3.244c-0.568,1.559-2.184,2.402-2.184,2.402
					s-0.694-1.685-0.126-3.244C184.133,256.072,185.748,255.229,185.748,255.229z"/>
				<path style="fill:#FFFFFF;" d="M192.12,291.587c0,0-1.822,0.033-3.067-1.064c-1.245-1.097-1.442-2.908-1.442-2.908
					s1.822-0.033,3.067,1.063C191.923,289.776,192.12,291.587,192.12,291.587z"/>
				<path style="fill:#FFFFFF;" d="M174.638,289.594c0,0-0.495,1.754-1.905,2.629c-1.41,0.875-3.201,0.54-3.201,0.54
					s0.495-1.754,1.905-2.629C172.847,289.259,174.638,289.594,174.638,289.594z"/>
				<path style="fill:#FFFFFF;" d="M190.087,246.361c0,0,0.182,1.813-0.809,3.144c-0.991,1.331-2.78,1.676-2.78,1.676
					s-0.183-1.813,0.808-3.144C188.298,246.706,190.087,246.361,190.087,246.361z"/>
				<path style="fill:#FFFFFF;" d="M190.119,238.349c0,0,0.182,1.813-0.809,3.144c-0.991,1.331-2.78,1.676-2.78,1.676
					s-0.182-1.813,0.809-3.144C188.329,238.693,190.119,238.349,190.119,238.349z"/>
			</g>
		</g>
	</g>
	<g>
		<g>
			<path style="fill:#92E3A9;" d="M284.696,218.286l4.585,2.108l-8.235-12.93c-0.143-0.823-0.267-1.657-0.374-2.501l-0.351-10.823
				c0,0,4.793,4.599,5.418,4.791c0.548,0.168-3.38-14.804-4.364-18.525c0.297-2.719,0.647-5.592,1.047-8.57l6.027,3.141
				l-4.585-7.091l1.667-14.373l3.126,1.341l-2.268-6.992c0.986-4.978,2.073-9.892,3.245-14.554l2.982-7.009l1.459,6.132
				l0.197-14.654c3.46-9.533,7.371-15.897,11.512-15.897c4.999,0,9.662,9.272,13.602,22.202l0.112,8.348l1.043-4.386
				c2.034,7.295,3.848,15.48,5.384,23.697l-1.009,3.11l1.463-0.628c0.921,5.116,1.731,10.208,2.417,15.071l-3.672,5.678l4.15-2.163
				c0.623,4.739,1.119,9.195,1.47,13.161c-1.462,5.683-3.297,13.075-2.911,12.957c0.36-0.11,2.103-1.684,3.517-2.998
				c0.012,0.537,0.019,1.059,0.019,1.544c0,5.242-0.683,10.239-1.913,14.805l-5.166,8.112l2.783-1.279
				c-4.588,10.474-12.41,17.374-21.29,17.374c-8.988,0-16.888-7.072-21.452-17.76L284.696,218.286z"/>
			<g>
				<polygon style="fill:#263238;" points="319.603,189.542 311.442,192.389 307.4,197.884 308.107,214.709 312.81,211.517 
					308.253,218.191 309.036,269.763 306.623,269.763 304.507,269.819 304.988,205.404 291.435,197.932 299.182,200.798 
					297.628,196.134 301.332,201.593 305.03,202.961 305.294,187.646 291.834,169.764 299.048,176.977 297.828,171.962 
					301.278,179.208 305.369,183.299 305.781,159.372 307.248,194.268 320.003,180.752 312.996,190.276 				"/>
			</g>
			<g>
				<path style="fill:#FFFFFF;" d="M291.705,159.448c0,0-0.237,2.351,1.048,4.076c1.285,1.726,3.605,2.173,3.605,2.173
					s0.237-2.351-1.048-4.076C294.025,159.895,291.705,159.448,291.705,159.448z"/>
				<path style="fill:#FFFFFF;" d="M283.994,170.283c0,0-0.237,2.351,1.048,4.076c1.285,1.726,3.605,2.173,3.605,2.173
					s0.237-2.35-1.048-4.076C286.314,170.73,283.994,170.283,283.994,170.283z"/>
				<path style="fill:#FFFFFF;" d="M283.997,191.378c0,0,0.568,2.293,2.359,3.486c1.791,1.192,4.126,0.833,4.126,0.833
					s-0.568-2.293-2.359-3.486S283.997,191.378,283.997,191.378z"/>
				<path style="fill:#FFFFFF;" d="M326.349,191.378c0,0-0.568,2.293-2.359,3.486c-1.791,1.192-4.126,0.833-4.126,0.833
					s0.568-2.293,2.359-3.486C324.014,191.018,326.349,191.378,326.349,191.378z"/>
				<path style="fill:#FFFFFF;" d="M292.904,182.622c0,0-0.237,2.351,1.048,4.076c1.285,1.726,3.605,2.173,3.605,2.173
					s0.237-2.351-1.048-4.076C295.224,183.069,292.904,182.622,292.904,182.622z"/>
				<path style="fill:#FFFFFF;" d="M294.902,147.661c0,0-0.237,2.351,1.048,4.076c1.285,1.726,3.605,2.173,3.605,2.173
					s0.237-2.351-1.048-4.076C297.222,148.108,294.902,147.661,294.902,147.661z"/>
				<path style="fill:#FFFFFF;" d="M299.497,156.651c0,0-0.237,2.351,1.048,4.076c1.285,1.726,3.605,2.173,3.605,2.173
					s0.237-2.351-1.048-4.076C301.816,157.098,299.497,156.651,299.497,156.651z"/>
				<path style="fill:#FFFFFF;" d="M288.589,150.105c0,0-0.237,2.351,1.048,4.077c1.285,1.725,3.605,2.173,3.605,2.173
					s0.237-2.351-1.048-4.076C290.908,150.553,288.589,150.105,288.589,150.105z"/>
				<path style="fill:#FFFFFF;" d="M324.034,150.105c0,0,0.237,2.351-1.048,4.077c-1.285,1.725-3.605,2.173-3.605,2.173
					s-0.237-2.351,1.048-4.076C321.715,150.553,324.034,150.105,324.034,150.105z"/>
				<path style="fill:#FFFFFF;" d="M293.903,136.673c0,0-0.237,2.351,1.048,4.076c1.285,1.726,3.605,2.173,3.605,2.173
					s0.237-2.351-1.048-4.076C296.223,137.121,293.903,136.673,293.903,136.673z"/>
				<path style="fill:#FFFFFF;" d="M296.161,125.002c0,0-0.82,2.216-0.009,4.209c0.81,1.993,2.943,3.009,2.943,3.009
					s0.82-2.216,0.009-4.209C298.294,126.018,296.161,125.002,296.161,125.002z"/>
				<path style="fill:#FFFFFF;" d="M312.341,121.952c0,0-2.093,1.096-2.826,3.119c-0.734,2.022,0.17,4.205,0.17,4.205
					s2.093-1.096,2.826-3.119C313.244,124.135,312.341,121.952,312.341,121.952z"/>
				<path style="fill:#FFFFFF;" d="M304.796,135.909c0,0-1.491,1.833-1.367,3.981c0.123,2.148,1.815,3.798,1.815,3.798
					s1.491-1.833,1.367-3.981C306.487,137.559,304.796,135.909,304.796,135.909z"/>
				<path style="fill:#FFFFFF;" d="M305.195,115.132c0,0-1.491,1.833-1.368,3.981c0.124,2.148,1.815,3.798,1.815,3.798
					s1.491-1.833,1.367-3.981C306.887,116.782,305.195,115.132,305.195,115.132z"/>
				<path style="fill:#FFFFFF;" d="M322.129,159.448c0,0,0.237,2.351-1.048,4.076c-1.285,1.726-3.605,2.173-3.605,2.173
					s-0.237-2.351,1.048-4.076C319.809,159.895,322.129,159.448,322.129,159.448z"/>
				<path style="fill:#FFFFFF;" d="M326.524,172.233c0,0,0.237,2.351-1.048,4.076c-1.285,1.726-3.605,2.173-3.605,2.173
					s-0.237-2.351,1.048-4.076C324.204,172.68,326.524,172.233,326.524,172.233z"/>
				<path style="fill:#FFFFFF;" d="M314.858,176.875c0,0,0.237,2.351-1.048,4.076c-1.285,1.726-3.605,2.173-3.605,2.173
					s-0.237-2.351,1.048-4.076C312.538,177.322,314.858,176.875,314.858,176.875z"/>
				<path style="fill:#FFFFFF;" d="M311.668,159.159c0,0,0.9,2.185,0.163,4.206c-0.737,2.021-2.832,3.114-2.832,3.114
					s-0.9-2.184-0.163-4.206C309.573,160.252,311.668,159.159,311.668,159.159z"/>
				<path style="fill:#FFFFFF;" d="M319.929,206.301c0,0-2.362,0.043-3.977-1.379c-1.614-1.422-1.87-3.771-1.87-3.771
					s2.362-0.043,3.977,1.379C319.674,203.952,319.929,206.301,319.929,206.301z"/>
				<path style="fill:#FFFFFF;" d="M297.262,203.717c0,0-0.642,2.274-2.47,3.408c-1.828,1.134-4.15,0.7-4.15,0.7
					s0.642-2.274,2.47-3.408C294.94,203.282,297.262,203.717,297.262,203.717z"/>
				<path style="fill:#FFFFFF;" d="M317.294,147.661c0,0,0.237,2.351-1.048,4.076c-1.285,1.726-3.605,2.173-3.605,2.173
					s-0.237-2.351,1.048-4.076C314.974,148.108,317.294,147.661,317.294,147.661z"/>
				<path style="fill:#FFFFFF;" d="M317.335,137.273c0,0,0.237,2.351-1.048,4.076c-1.285,1.726-3.605,2.173-3.605,2.173
					s-0.237-2.351,1.048-4.076C315.015,137.72,317.335,137.273,317.335,137.273z"/>
			</g>
		</g>
	</g>
	<g>
		<path style="fill:#92E3A9;" d="M405.744,392.563c0,0-1.352-24.79,15.324-29.297c16.677-4.507,20.733,11.268,20.733,21.184
			c0,9.916,7.211-0.451,13.071,3.155c5.859,3.606,6.761,10.367,5.409,16.677c-1.352,6.31,5.859-0.901,9.916,5.409
			c4.056,6.31,1.352,8.113,0.451,9.916c-0.901,1.803,18.479,4.958,18.479,4.958H361.573c0,0,16.538-0.221,13.972-7.662
			c-4.507-13.071,4.507-22.987,10.817-23.888c6.31-0.901,7.212,4.958,13.972,5.409C407.096,398.873,405.744,392.563,405.744,392.563
			z"/>
		<path style="fill:#FFFFFF;" d="M413.984,383.569c0,0,0.892,3.162,3.435,4.74c2.542,1.578,5.772,0.973,5.772,0.973
			s-0.892-3.162-3.435-4.74C417.213,382.965,413.984,383.569,413.984,383.569z"/>
		<path style="fill:#FFFFFF;" d="M430.829,390.009c0,0,3.276-0.251,5.324-2.432c2.049-2.181,2.094-5.466,2.094-5.466
			s-3.276,0.251-5.324,2.431C430.874,386.724,430.829,390.009,430.829,390.009z"/>
		<path style="fill:#FFFFFF;" d="M427.461,410.832c0,0,3.276-0.251,5.324-2.432c2.048-2.181,2.094-5.466,2.094-5.466
			s-3.276,0.251-5.324,2.431C427.506,407.547,427.461,410.832,427.461,410.832z"/>
		<path style="fill:#FFFFFF;" d="M409.584,396.339c0,0,0.892,3.162,3.435,4.74c2.542,1.578,5.772,0.973,5.772,0.973
			s-0.892-3.162-3.435-4.74C412.813,395.735,409.584,396.339,409.584,396.339z"/>
		<path style="fill:#FFFFFF;" d="M384.65,417.209c0,0,2.253,2.392,5.237,2.616c2.984,0.224,5.568-1.805,5.568-1.805
			s-2.253-2.392-5.236-2.616C387.234,415.181,384.65,417.209,384.65,417.209z"/>
		<path style="fill:#FFFFFF;" d="M430.054,370.434c0,0-2.774,1.761-3.557,4.649c-0.783,2.888,0.721,5.809,0.721,5.809
			s2.774-1.761,3.557-4.649C431.558,373.355,430.054,370.434,430.054,370.434z"/>
		<path style="fill:#FFFFFF;" d="M444.967,391.798c0,0-1.665,2.833-1.044,5.76c0.621,2.927,3.292,4.84,3.292,4.84
			s1.665-2.832,1.044-5.759C447.638,393.711,444.967,391.798,444.967,391.798z"/>
		<path style="fill:#FFFFFF;" d="M458.184,412.822c0,0-2.73-1.828-5.689-1.379c-2.958,0.449-5.024,3.003-5.024,3.003
			s2.73,1.827,5.689,1.379C456.118,415.376,458.184,412.822,458.184,412.822z"/>
		<path style="fill:#FFFFFF;" d="M400.451,407.776c0,0-0.552-3.239-2.912-5.077c-2.36-1.839-5.636-1.581-5.636-1.581
			s0.552,3.239,2.912,5.077C397.175,408.034,400.451,407.776,400.451,407.776z"/>
	</g>
	<g>
		<g>
			<path style="fill:#92E3A9;" d="M451.827,337.653l-7.78,3.577l13.975-21.942c0.242-1.397,0.452-2.812,0.635-4.244l0.596-18.367
				c0,0-8.133,7.805-9.194,8.13c-0.929,0.285,5.736-25.122,7.406-31.437c-0.504-4.615-1.098-9.49-1.776-14.543l-10.227,5.33
				l7.78-12.033l-2.829-24.39l-5.304,2.276l3.848-11.865c-1.674-8.448-3.517-16.787-5.506-24.697l-5.06-11.893l-2.475,10.406
				l-0.334-24.867c-5.872-16.177-12.508-26.976-19.535-26.976c-8.483,0-16.396,15.734-23.083,37.677l-0.19,14.166l-1.77-7.443
				c-3.451,12.378-6.53,26.269-9.135,40.213l1.712,5.278l-2.483-1.066c-1.563,8.682-2.938,17.323-4.101,25.576l6.23,9.636
				l-7.043-3.67c-1.058,8.042-1.898,15.603-2.495,22.333c2.482,9.643,5.595,22.188,4.941,21.987
				c-0.612-0.187-3.569-2.857-5.968-5.088c-0.02,0.912-0.033,1.797-0.033,2.621c0,8.896,1.158,17.375,3.245,25.124l8.767,13.765
				l-4.722-2.171c7.786,17.773,21.058,29.483,36.128,29.483c15.253,0,28.658-12.001,36.403-30.138L451.827,337.653z"/>
			<g>
				<polygon style="fill:#263238;" points="392.591,288.875 406.439,293.706 413.3,303.031 412.1,331.583 404.117,326.166 
					411.852,337.492 410.522,425.008 414.618,425.008 418.208,425.103 417.392,315.792 440.391,303.114 427.244,307.976 
					429.882,300.063 423.596,309.325 417.321,311.647 416.873,285.658 439.713,255.313 427.472,267.554 429.543,259.042 
					423.687,271.339 416.746,278.281 416.046,237.678 413.557,296.896 391.913,273.959 403.802,290.121 				"/>
			</g>
			<g>
				<path style="fill:#FFFFFF;" d="M439.932,237.807c0,0,0.402,3.989-1.779,6.917c-2.18,2.928-6.117,3.688-6.117,3.688
					s-0.402-3.989,1.779-6.917C435.995,238.565,439.932,237.807,439.932,237.807z"/>
				<path style="fill:#FFFFFF;" d="M453.018,256.193c0,0,0.402,3.989-1.779,6.917c-2.181,2.928-6.117,3.687-6.117,3.687
					s-0.401-3.989,1.779-6.917C449.082,256.952,453.018,256.193,453.018,256.193z"/>
				<path style="fill:#FFFFFF;" d="M453.013,291.991c0,0-0.964,3.891-4.004,5.915c-3.039,2.023-7.001,1.413-7.001,1.413
					s0.965-3.891,4.004-5.915C449.05,291.381,453.013,291.991,453.013,291.991z"/>
				<path style="fill:#FFFFFF;" d="M381.143,291.991c0,0,0.965,3.891,4.004,5.915c3.039,2.023,7.001,1.413,7.001,1.413
					s-0.965-3.891-4.004-5.915C385.105,291.381,381.143,291.991,381.143,291.991z"/>
				<path style="fill:#FFFFFF;" d="M437.898,277.132c0,0,0.402,3.989-1.779,6.917c-2.18,2.928-6.117,3.687-6.117,3.687
					s-0.402-3.989,1.779-6.917C433.961,277.891,437.898,277.132,437.898,277.132z"/>
				<path style="fill:#FFFFFF;" d="M434.508,217.805c0,0,0.401,3.989-1.779,6.917c-2.181,2.928-6.117,3.687-6.117,3.687
					s-0.401-3.989,1.779-6.917C430.571,218.564,434.508,217.805,434.508,217.805z"/>
				<path style="fill:#FFFFFF;" d="M426.711,233.061c0,0,0.402,3.989-1.779,6.917c-2.181,2.928-6.117,3.687-6.117,3.687
					s-0.401-3.989,1.779-6.917C422.774,233.82,426.711,233.061,426.711,233.061z"/>
				<path style="fill:#FFFFFF;" d="M445.221,221.953c0,0,0.401,3.989-1.779,6.918c-2.181,2.928-6.117,3.687-6.117,3.687
					s-0.401-3.989,1.779-6.917C441.284,222.712,445.221,221.953,445.221,221.953z"/>
				<path style="fill:#FFFFFF;" d="M385.071,221.953c0,0-0.401,3.989,1.779,6.918c2.181,2.928,6.117,3.687,6.117,3.687
					s0.401-3.989-1.779-6.917C389.007,222.712,385.071,221.953,385.071,221.953z"/>
				<path style="fill:#FFFFFF;" d="M436.203,199.16c0,0,0.402,3.989-1.779,6.917c-2.181,2.928-6.117,3.688-6.117,3.688
					s-0.401-3.989,1.779-6.917C432.266,199.918,436.203,199.16,436.203,199.16z"/>
				<path style="fill:#FFFFFF;" d="M432.371,179.353c0,0,1.391,3.76,0.016,7.143c-1.375,3.382-4.995,5.106-4.995,5.106
					s-1.391-3.76-0.016-7.142C428.751,181.077,432.371,179.353,432.371,179.353z"/>
				<path style="fill:#FFFFFF;" d="M404.914,174.178c0,0,3.552,1.86,4.796,5.293c1.245,3.432-0.288,7.136-0.288,7.136
					s-3.551-1.86-4.796-5.292C403.381,177.882,404.914,174.178,404.914,174.178z"/>
				<path style="fill:#FFFFFF;" d="M417.718,197.862c0,0,2.53,3.11,2.32,6.755c-0.209,3.645-3.079,6.445-3.079,6.445
					s-2.53-3.11-2.32-6.755C414.848,200.662,417.718,197.862,417.718,197.862z"/>
				<path style="fill:#FFFFFF;" d="M417.04,162.605c0,0,2.53,3.11,2.321,6.755c-0.21,3.645-3.08,6.444-3.08,6.444
					s-2.53-3.11-2.32-6.755C414.17,165.405,417.04,162.605,417.04,162.605z"/>
				<path style="fill:#FFFFFF;" d="M388.304,237.807c0,0-0.402,3.989,1.779,6.917c2.18,2.928,6.117,3.688,6.117,3.688
					s0.402-3.989-1.779-6.917C392.241,238.565,388.304,237.807,388.304,237.807z"/>
				<path style="fill:#FFFFFF;" d="M380.845,259.503c0,0-0.401,3.989,1.779,6.917c2.18,2.928,6.117,3.687,6.117,3.687
					s0.402-3.989-1.779-6.917C384.782,260.262,380.845,259.503,380.845,259.503z"/>
				<path style="fill:#FFFFFF;" d="M400.643,267.38c0,0-0.402,3.989,1.779,6.917c2.18,2.928,6.117,3.687,6.117,3.687
					s0.401-3.989-1.779-6.917C404.58,268.139,400.643,267.38,400.643,267.38z"/>
				<path style="fill:#FFFFFF;" d="M406.056,237.317c0,0-1.527,3.707-0.277,7.137c1.251,3.43,4.805,5.285,4.805,5.285
					s1.527-3.707,0.276-7.137C409.611,239.171,406.056,237.317,406.056,237.317z"/>
				<path style="fill:#FFFFFF;" d="M392.037,317.314c0,0,4.009,0.073,6.748-2.34c2.74-2.413,3.173-6.399,3.173-6.399
					s-4.008-0.073-6.748,2.34C392.471,313.329,392.037,317.314,392.037,317.314z"/>
				<path style="fill:#FFFFFF;" d="M430.502,312.929c0,0,1.089,3.858,4.191,5.783c3.102,1.925,7.043,1.188,7.043,1.188
					s-1.089-3.859-4.191-5.783C434.443,312.192,430.502,312.929,430.502,312.929z"/>
				<path style="fill:#FFFFFF;" d="M396.509,217.805c0,0-0.401,3.989,1.779,6.917c2.181,2.928,6.117,3.687,6.117,3.687
					s0.402-3.989-1.779-6.917C400.445,218.564,396.509,217.805,396.509,217.805z"/>
				<path style="fill:#FFFFFF;" d="M396.44,200.177c0,0-0.402,3.989,1.779,6.917c2.18,2.929,6.117,3.687,6.117,3.687
					s0.401-3.989-1.779-6.917C400.377,200.935,396.44,200.177,396.44,200.177z"/>
			</g>
		</g>
	</g>
	<g>
		<path style="fill:#92E3A9;" d="M120.549,290.221c0,0-0.905-16.591,10.256-19.607c11.161-3.016,13.876,7.541,13.876,14.178
			s4.826-0.302,8.748,2.112c3.921,2.413,4.525,6.938,3.62,11.161c-0.905,4.223,3.922-0.603,6.636,3.62
			c2.715,4.223,0.905,5.43,0.302,6.636c-0.603,1.207,12.368,3.318,12.368,3.318H90.987c0,0,11.068-0.148,9.351-5.128
			c-3.016-8.748,3.017-15.384,7.24-15.988s4.826,3.318,9.351,3.62C121.453,294.444,120.549,290.221,120.549,290.221z"/>
		<path style="fill:#FFFFFF;" d="M126.063,284.202c0,0,0.597,2.116,2.299,3.172c1.702,1.056,3.863,0.651,3.863,0.651
			s-0.597-2.116-2.299-3.172C128.225,283.797,126.063,284.202,126.063,284.202z"/>
		<path style="fill:#FFFFFF;" d="M137.337,288.511c0,0,2.193-0.168,3.563-1.627c1.371-1.46,1.401-3.658,1.401-3.658
			s-2.193,0.168-3.563,1.627C137.368,286.313,137.337,288.511,137.337,288.511z"/>
		<path style="fill:#FFFFFF;" d="M135.083,302.448c0,0,2.193-0.168,3.563-1.627c1.371-1.46,1.401-3.658,1.401-3.658
			s-2.193,0.168-3.563,1.627C135.113,300.249,135.083,302.448,135.083,302.448z"/>
		<path style="fill:#FFFFFF;" d="M123.118,292.748c0,0,0.597,2.116,2.299,3.172c1.701,1.056,3.863,0.651,3.863,0.651
			s-0.597-2.116-2.299-3.172C125.28,292.344,123.118,292.748,123.118,292.748z"/>
		<path style="fill:#FFFFFF;" d="M106.431,306.716c0,0,1.508,1.6,3.505,1.75c1.997,0.15,3.727-1.208,3.727-1.208
			s-1.508-1.601-3.505-1.75C108.161,305.358,106.431,306.716,106.431,306.716z"/>
		<path style="fill:#FFFFFF;" d="M136.818,275.41c0,0-1.856,1.179-2.38,3.111c-0.524,1.933,0.483,3.887,0.483,3.887
			s1.856-1.178,2.38-3.111C137.825,277.365,136.818,275.41,136.818,275.41z"/>
		<path style="fill:#FFFFFF;" d="M146.799,289.709c0,0-1.114,1.896-0.699,3.855c0.415,1.959,2.203,3.239,2.203,3.239
			s1.114-1.896,0.699-3.855C148.587,290.989,146.799,289.709,146.799,289.709z"/>
		<path style="fill:#FFFFFF;" d="M155.645,303.779c0,0-1.827-1.223-3.807-0.923c-1.98,0.3-3.362,2.01-3.362,2.01
			s1.827,1.223,3.807,0.923C154.262,305.489,155.645,303.779,155.645,303.779z"/>
		<path style="fill:#FFFFFF;" d="M117.006,300.402c0,0-0.369-2.168-1.949-3.398c-1.58-1.23-3.772-1.058-3.772-1.058
			s0.369,2.168,1.949,3.398C114.814,300.575,117.006,300.402,117.006,300.402z"/>
	</g>
	<g>
		<path style="fill:#92E3A9;" d="M202.213,329.615c0,0-1.114-20.416,12.621-24.128c13.734-3.712,17.075,9.28,17.075,17.446
			c0,8.166,5.939-0.371,10.765,2.598c4.826,2.969,5.568,8.537,4.454,13.734c-1.113,5.197,4.826-0.742,8.166,4.454
			c3.341,5.197,1.114,6.681,0.371,8.166c-0.742,1.485,15.219,4.083,15.219,4.083H165.836c0,0,13.62-0.182,11.507-6.31
			c-3.712-10.765,3.712-18.931,8.909-19.673s5.939,4.083,11.507,4.454C203.326,334.811,202.213,329.615,202.213,329.615z"/>
		<path style="fill:#FFFFFF;" d="M208.999,322.208c0,0,0.735,2.604,2.829,3.903c2.094,1.299,4.753,0.802,4.753,0.802
			s-0.735-2.604-2.829-3.903C211.658,321.71,208.999,322.208,208.999,322.208z"/>
		<path style="fill:#FFFFFF;" d="M222.872,327.511c0,0,2.698-0.206,4.385-2.003c1.687-1.796,1.724-4.501,1.724-4.501
			s-2.698,0.206-4.385,2.002C222.909,324.805,222.872,327.511,222.872,327.511z"/>
		<path style="fill:#FFFFFF;" d="M220.098,344.66c0,0,2.698-0.207,4.385-2.003c1.687-1.796,1.724-4.502,1.724-4.502
			s-2.698,0.207-4.385,2.003C220.135,341.954,220.098,344.66,220.098,344.66z"/>
		<path style="fill:#FFFFFF;" d="M205.375,332.724c0,0,0.735,2.604,2.829,3.903c2.094,1.299,4.753,0.802,4.753,0.802
			s-0.735-2.604-2.829-3.903C208.035,332.227,205.375,332.724,205.375,332.724z"/>
		<path style="fill:#FFFFFF;" d="M184.84,349.912c0,0,1.855,1.97,4.313,2.154c2.457,0.185,4.586-1.486,4.586-1.486
			s-1.855-1.97-4.313-2.154C186.969,348.241,184.84,349.912,184.84,349.912z"/>
		<path style="fill:#FFFFFF;" d="M222.233,311.389c0,0-2.284,1.45-2.929,3.829c-0.645,2.378,0.594,4.784,0.594,4.784
			s2.284-1.45,2.929-3.828C223.472,313.795,222.233,311.389,222.233,311.389z"/>
		<path style="fill:#FFFFFF;" d="M234.515,328.984c0,0-1.371,2.333-0.86,4.743c0.511,2.41,2.711,3.986,2.711,3.986
			s1.371-2.333,0.86-4.743C236.715,330.56,234.515,328.984,234.515,328.984z"/>
		<path style="fill:#FFFFFF;" d="M245.4,346.298c0,0-2.249-1.505-4.685-1.135c-2.436,0.369-4.137,2.474-4.137,2.474
			s2.249,1.505,4.685,1.135C243.699,348.403,245.4,346.298,245.4,346.298z"/>
		<path style="fill:#FFFFFF;" d="M197.853,342.143c0,0-0.454-2.667-2.398-4.182c-1.944-1.514-4.641-1.302-4.641-1.302
			s0.454,2.667,2.398,4.182C195.156,342.356,197.853,342.143,197.853,342.143z"/>
	</g>
	<g>
		<path style="fill:#92E3A9;" d="M328.757,315.491c0,0-0.676-12.397,7.664-14.651c8.34-2.254,10.369,5.635,10.369,10.594
			c0,4.959,3.607-0.225,6.537,1.578c2.93,1.803,3.381,5.184,2.705,8.34s2.93-0.451,4.959,2.705c2.029,3.156,0.676,4.057,0.225,4.959
			c-0.451,0.902,9.242,2.479,9.242,2.479h-63.79c0,0,8.271-0.11,6.988-3.832c-2.254-6.537,2.254-11.496,5.41-11.947
			s3.607,2.479,6.988,2.705C329.433,318.646,328.757,315.491,328.757,315.491z"/>
		<path style="fill:#FFFFFF;" d="M332.877,310.993c0,0,0.446,1.581,1.718,2.37c1.271,0.789,2.887,0.487,2.887,0.487
			s-0.446-1.581-1.718-2.37S332.877,310.993,332.877,310.993z"/>
		<path style="fill:#FFFFFF;" d="M341.302,314.213c0,0,1.638-0.125,2.663-1.216c1.025-1.091,1.047-2.734,1.047-2.734
			s-1.638,0.125-2.663,1.216C341.325,312.57,341.302,314.213,341.302,314.213z"/>
		<path style="fill:#FFFFFF;" d="M339.617,324.627c0,0,1.638-0.125,2.663-1.216c1.025-1.091,1.047-2.733,1.047-2.733
			s-1.638,0.125-2.663,1.216C339.64,322.984,339.617,324.627,339.617,324.627z"/>
		<path style="fill:#FFFFFF;" d="M330.677,317.379c0,0,0.446,1.581,1.718,2.37c1.271,0.789,2.886,0.487,2.886,0.487
			s-0.446-1.581-1.718-2.37C332.292,317.077,330.677,317.379,330.677,317.379z"/>
		<path style="fill:#FFFFFF;" d="M318.207,327.816c0,0,1.127,1.196,2.619,1.308c1.492,0.112,2.785-0.902,2.785-0.902
			s-1.127-1.196-2.619-1.308C319.5,326.802,318.207,327.816,318.207,327.816z"/>
		<path style="fill:#FFFFFF;" d="M340.914,304.423c0,0-1.387,0.881-1.779,2.325c-0.392,1.444,0.361,2.905,0.361,2.905
			s1.387-0.881,1.779-2.325C341.667,305.884,340.914,304.423,340.914,304.423z"/>
		<path style="fill:#FFFFFF;" d="M348.372,315.108c0,0-0.833,1.417-0.522,2.88c0.31,1.464,1.646,2.421,1.646,2.421
			s0.833-1.417,0.522-2.88C349.708,316.065,348.372,315.108,348.372,315.108z"/>
		<path style="fill:#FFFFFF;" d="M354.982,325.622c0,0-1.365-0.914-2.845-0.689c-1.479,0.224-2.512,1.502-2.512,1.502
			s1.366,0.914,2.845,0.69C353.949,326.9,354.982,325.622,354.982,325.622z"/>
		<path style="fill:#FFFFFF;" d="M326.109,323.099c0,0-0.276-1.62-1.456-2.539c-1.18-0.919-2.818-0.79-2.818-0.79
			s0.276,1.62,1.456,2.539C324.471,323.228,326.109,323.099,326.109,323.099z"/>
	</g>
</g>
<g id="Rocks_1_">
	<g>
		<path style="fill:#B8B8B8;" d="M324.366,278.597c0,0-20.307-20.307-27.453-21.059c-7.145-0.752-14.666,6.769-16.171,8.649
			c-1.504,1.88-2.256,7.145-2.256,7.145s-6.769,9.026-8.273,12.41c-1.504,3.385,2.256,9.402,2.256,9.402s12.41,12.786,19.179,12.41
			c6.769-0.376,26.7-1.88,27.828-2.632c1.128-0.752,14.666-10.53,14.666-13.162C334.143,289.127,324.366,278.597,324.366,278.597z"
			/>
		<g>
			<path style="fill:#878787;" d="M328.625,293.028c0,0-18.046,10.367-19.198,10.751c-1.152,0.384-19.966-5.375-20.734-8.447
				c-0.768-3.072-0.768-10.751-0.768-10.751l11.903-1.536l3.456-3.456l-13.055-0.384l-9.486-13.018
				c-1.504,1.88-2.256,7.145-2.256,7.145s-6.769,9.026-8.273,12.41c-1.504,3.385,2.256,9.402,2.256,9.402s12.41,12.786,19.179,12.41
				c6.769-0.376,26.7-1.88,27.828-2.632c1.029-0.686,12.377-8.878,14.365-12.311L328.625,293.028z"/>
		</g>
		<path style="fill:none;stroke:#263238;stroke-miterlimit:10;" d="M324.366,278.597c0,0-20.307-20.307-27.453-21.059
			c-7.145-0.752-14.666,6.769-16.171,8.649c-1.504,1.88-2.256,7.145-2.256,7.145s-6.769,9.026-8.273,12.41
			c-1.504,3.385,2.256,9.402,2.256,9.402s12.41,12.786,19.179,12.41c6.769-0.376,26.7-1.88,27.828-2.632
			c1.128-0.752,14.666-10.53,14.666-13.162C334.143,289.127,324.366,278.597,324.366,278.597z"/>
	</g>
	<g>
		<g>
			<path style="fill:#B8B8B8;" d="M105.056,300.167c0,0-19.733,7.557-19.733,9.237s-0.84,7.138,0.42,8.397
				c1.26,1.26,18.893,10.496,22.672,9.657c3.779-0.84,20.573-11.336,20.573-13.015c0-1.679-6.298-12.176-10.916-13.435
				C113.453,299.747,107.575,298.488,105.056,300.167z"/>
			<path style="fill:#878787;" d="M126.607,309.563l-7.747,5.709c0,0-3.001-0.429-4.715-0.429c-1.715,0-12.432,4.287-12.432,4.287
				s-12.003-8.145-12.432-9.859c-0.429-1.715,10.717-6.43,10.717-6.43l-0.298-0.553c-5.844,2.367-14.377,6.013-14.377,7.118
				c0,1.679-0.84,7.138,0.42,8.397c1.259,1.26,18.893,10.496,22.672,9.657c3.779-0.84,20.573-11.336,20.573-13.015l-0.862-2.249
				C127.728,311.416,127.214,310.52,126.607,309.563z"/>
			<path style="fill:none;stroke:#263238;stroke-miterlimit:10;" d="M105.056,300.167c0,0-19.733,7.557-19.733,9.237
				s-0.84,7.138,0.42,8.397c1.26,1.26,18.893,10.496,22.672,9.657c3.779-0.84,20.573-11.336,20.573-13.015
				c0-1.679-6.298-12.176-10.916-13.435C113.453,299.747,107.575,298.488,105.056,300.167z"/>
		</g>
		<g>
			<path style="fill:#B8B8B8;" d="M133.606,308.144c0,0-9.237,5.878-9.657,7.977c-0.42,2.099,2.519,5.878,3.779,6.298
				c1.26,0.42,13.855-0.42,13.855-0.42s4.618-2.099,2.519-6.718C142.003,310.664,138.644,306.045,133.606,308.144z"/>
			<path style="fill:#878787;" d="M143.188,320.851l-4.181-1.722l-6.859,1.286l-3.161-5.973l1.875-3.886l-0.037-0.554
				c-2.757,1.908-6.608,4.78-6.876,6.12c-0.42,2.099,2.519,5.878,3.779,6.298c1.26,0.42,13.855-0.42,13.855-0.42
				S142.398,321.624,143.188,320.851z"/>
			<path style="fill:none;stroke:#263238;stroke-miterlimit:10;" d="M133.606,308.144c0,0-9.237,5.878-9.657,7.977
				c-0.42,2.099,2.519,5.878,3.779,6.298c1.26,0.42,13.855-0.42,13.855-0.42s4.618-2.099,2.519-6.718
				C142.003,310.664,138.644,306.045,133.606,308.144z"/>
		</g>
	</g>
	<g>
		<path style="fill:#B8B8B8;" d="M355.429,426.444c0,0,26.513-40.433,29.828-42.421c3.314-1.988,11.268-3.314,11.268-3.314
			s3.977,5.303,3.977,7.291s0.663,39.77,0.663,39.77l-19.885,11.268c0,0-18.559-1.326-20.548-2.651
			C358.743,435.06,355.429,426.444,355.429,426.444z"/>
		<path style="fill:#878787;" d="M355.429,426.444c0,0,3.314,8.617,5.303,9.942c1.783,1.189,16.883,2.377,19.984,2.61
			c-0.628-3.611-1.281-8.44-1.281-12.91c0-8.598-11.823,5.643-12.36,4.568c-0.537-1.075-2.15-4.568-1.881-5.911
			c0.269-1.343,20.152-25.526,20.152-25.526l-0.089-15.194C381.942,386.011,355.429,426.444,355.429,426.444z"/>
		<path style="fill:none;stroke:#263238;stroke-miterlimit:10;" d="M355.429,426.444c0,0,26.513-40.433,29.828-42.421
			c3.314-1.988,11.268-3.314,11.268-3.314s3.977,5.303,3.977,7.291s0.663,39.77,0.663,39.77l-19.885,11.268
			c0,0-18.559-1.326-20.548-2.651C358.743,435.06,355.429,426.444,355.429,426.444z"/>
	</g>
	<g>
		<path style="fill:#B8B8B8;" d="M63.922,337.722l34.786,0.585l26.513,9.943l4.64,6.628l1.988,11.268l-11.268,8.617l-7.954,8.617
			c0,0-11.931,7.954-14.582,7.954s-25.188,0.663-28.502,1.326c-3.314,0.663-22.536,0.663-22.536,0.663l0.663-19.885
			c0,0,5.303-7.954,7.954-10.605c2.651-2.651,5.303-5.303,5.966-7.291C62.252,353.552,63.922,337.722,63.922,337.722z"/>
		<path style="fill:#878787;" d="M69.543,392.659c3.314-0.663,25.851-1.326,28.502-1.326c2.651,0,14.582-7.954,14.582-7.954
			l7.954-8.617l10.316-7.889l-21.028-2.013c0,0-14.241,2.687-15.047,2.956c-0.806,0.269-19.884,9.942-19.884,9.942l-27.269-4.321
			l-0.663,19.885C47.007,393.322,66.229,393.322,69.543,392.659z"/>
		<path style="fill:none;stroke:#263238;stroke-miterlimit:10;" d="M63.922,337.722l34.786,0.585l26.513,9.943l4.64,6.628
			l1.988,11.268l-11.268,8.617l-7.954,8.617c0,0-11.931,7.954-14.582,7.954s-25.188,0.663-28.502,1.326
			c-3.314,0.663-22.536,0.663-22.536,0.663l0.663-19.885c0,0,5.303-7.954,7.954-10.605c2.651-2.651,5.303-5.303,5.966-7.291
			C62.252,353.552,63.922,337.722,63.922,337.722z"/>
	</g>
	<g>
		<path style="fill:#B8B8B8;" d="M90.091,375.426c0,0-12.594,21.211-11.931,23.199c0.663,1.988,10.605,13.257,10.605,13.257
			l19.222,0.663c0,0,13.257-6.628,13.257-8.617s1.989-5.303,1.326-14.582c-0.663-9.28-1.989-14.582-1.989-14.582L90.091,375.426z"/>
		<path style="fill:#878787;" d="M121.244,403.927c0-0.695,0.244-1.56,0.532-2.776l-12.175,6.432l-18.809-7.524l-8.33-10.748
			l-0.283,0.089c-2.372,4.439-4.288,8.416-4.019,9.223c0.663,1.988,10.605,13.257,10.605,13.257l19.222,0.663
			C107.987,412.544,121.244,405.916,121.244,403.927z"/>
		<path style="fill:none;stroke:#263238;stroke-miterlimit:10;" d="M90.091,375.426c0,0-12.594,21.211-11.931,23.199
			c0.663,1.988,10.605,13.257,10.605,13.257l19.222,0.663c0,0,13.257-6.628,13.257-8.617s1.989-5.303,1.326-14.582
			c-0.663-9.28-1.989-14.582-1.989-14.582L90.091,375.426z"/>
	</g>
	<g>
		<path style="fill:#B8B8B8;" d="M144.151,366.284l34.643-25.75l9.94-1.257l16.29-3.001l26.149,7.288l30.865,10.288l10.717,6.001
			c0,0-0.429,6.859-1.286,9.431c-0.857,2.572-3.429,5.144-6.859,8.145c-3.429,3.001-20.148,6.001-22.72,7.288
			c-2.572,1.286-8.145,5.573-10.288,6.43c-2.143,0.857-5.573,3.001-5.573,3.001l-11.574,3.429l-30.436-9.431l-21.005-7.288
			l-22.291-9.431L144.151,366.284z"/>
		<path style="fill:#878787;" d="M178.794,340.534l-34.643,25.75l-3.429,5.144l22.291,9.431l21.005,7.288l30.436,9.431l11.574-3.429
			c0,0,3.43-2.143,5.573-3.001c2.143-0.857,7.716-5.144,10.288-6.43c2.572-1.286,19.29-4.287,22.72-7.288
			c3.429-3.001,6.001-5.573,6.859-8.145c0.857-2.572,1.286-9.431,1.286-9.431l-8.574,6.859c0,0-6.859-3.001-9.002-3.429
			c-2.143-0.429-21.434-0.857-23.577,0c-2.143,0.857,8.574,9.002,11.574,11.146c3.001,2.143-19.719,5.573-19.719,5.573l-19.29,8.574
			L171.586,374l-0.857-6.43l-4.715-6.859l4.287-8.145L178.794,340.534z"/>
		<path style="fill:none;stroke:#263238;stroke-miterlimit:10;" d="M144.151,366.284l34.643-25.75l9.94-1.257l16.29-3.001
			l26.149,7.288l30.865,10.288l10.717,6.001c0,0-0.429,6.859-1.286,9.431c-0.857,2.572-3.429,5.144-6.859,8.145
			c-3.429,3.001-20.148,6.001-22.72,7.288c-2.572,1.286-8.145,5.573-10.288,6.43c-2.143,0.857-5.573,3.001-5.573,3.001
			l-11.574,3.429l-30.436-9.431l-21.005-7.288l-22.291-9.431L144.151,366.284z"/>
	</g>
</g>
<g id="Sign">
	<g>
		<g>
			<g>
				<polygon style="fill:#FFFFFF;stroke:#263238;stroke-miterlimit:10;" points="55.89,427.781 43.485,430.8 43.789,238.936 
					56.61,237.222 				"/>
				<polygon style="fill:#FFFFFF;stroke:#263238;stroke-miterlimit:10;" points="53.013,235.224 56.61,237.222 43.789,238.936 
					40.192,236.938 				"/>
				<polygon style="fill:#FFFFFF;stroke:#263238;stroke-miterlimit:10;" points="39.889,428.802 43.485,430.8 43.789,238.936 
					40.192,236.938 				"/>
			</g>
			<g>
				<g>
					<path style="fill:#FFFFFF;stroke:#263238;stroke-miterlimit:10;" d="M85.915,315.457l-67.813,8.973
						c-3.084,0.408-5.822-1.992-5.822-5.103v-57.942c0-2.582,1.913-4.764,4.472-5.103l67.813-8.973
						c3.084-0.408,5.822,1.992,5.822,5.103v57.942C90.387,312.936,88.474,315.118,85.915,315.457z"/>
				</g>
			</g>
			<g>
				<g>
					<path style="fill:#FFFFFF;stroke:#263238;stroke-miterlimit:10;" d="M88.148,317.194l-67.813,8.973
						c-3.084,0.408-5.822-1.992-5.822-5.103v-57.942c0-2.582,1.913-4.764,4.472-5.103l67.813-8.973
						c3.084-0.408,5.822,1.992,5.822,5.103v57.942C92.62,314.673,90.708,316.855,88.148,317.194z"/>
				</g>
			</g>
			<g>
				<path style="fill:#263238;" d="M55.44,269.327c3.043,0,5.51-2.467,5.51-5.51c0-0.004-0.001-0.007-0.001-0.011l4.06,0.214
					c0,0,0.648-1.204,0-1.575c-0.442-0.253-3.122-0.915-4.784-1.311c-0.944-1.679-2.721-2.827-4.785-2.827
					c-3.043,0-5.51,2.467-5.51,5.51S52.397,269.327,55.44,269.327z"/>
				<path style="fill:#263238;" d="M45.686,288.498l2.285-14.554c-2.646-3.248-6.134,0.962-7.097,6.856
					S45.686,288.498,45.686,288.498z"/>
				<path style="fill:#263238;" d="M73.151,277.328c-0.224-1.294-1.328-2.208-2.589-2.257l0.149-2.258
					c0.039-0.601-0.416-1.121-1.017-1.16c-0.605-0.018-1.121,0.417-1.161,1.017l-0.179,2.72l-3.849,0.667l-6.5-2.601
					c-0.149-0.06-0.301-0.098-0.452-0.13c-0.544-1.39-1.773-2.472-3.353-2.728c-2.375-0.376-4.619,1.234-5.003,3.613l-3.127,19.366
					c-0.113,0.701-0.035,1.384,0.168,2.017l-3.966,7.607l-8.94,8.591c-1.086,1.044-1.12,2.771-0.077,3.857
					c0.536,0.557,1.251,0.837,1.967,0.837c0.68,0,1.361-0.253,1.889-0.761l9.262-8.901c0.213-0.206,0.391-0.443,0.528-0.706
					l3.92-7.52c0.134-0.014,0.262-0.047,0.393-0.073l3.196,2.626l0.702,11.096c0.092,1.445,1.292,2.555,2.719,2.555
					c0.058,0,0.116-0.002,0.175-0.005c1.503-0.095,2.645-1.391,2.55-2.895l-0.777-12.279c-0.048-0.754-0.406-1.455-0.991-1.935
					l-4.011-3.296l2.48-15.359l5.939,2.376c0.324,0.129,0.667,0.195,1.013,0.195c0.155,0,0.311-0.013,0.465-0.039l3.311-0.573
					l-2.098,31.854c-0.039,0.601,0.416,1.121,1.017,1.16c0.024,0.001,0.049,0.002,0.073,0.002c0.57,0,1.049-0.442,1.088-1.02
					l2.133-32.38l0.731-0.127C72.413,280.223,73.408,278.813,73.151,277.328z"/>
			</g>
			<polygon style="fill:#FFFFFF;stroke:#263238;stroke-miterlimit:10;" points="16.437,332.16 78.481,323.97 91.138,332.408 
				77.984,344.817 16.188,353.751 			"/>
			<g>
				<g>
					<polygon style="fill:#FFFFFF;stroke:#263238;stroke-miterlimit:10;" points="20.159,334.394 82.203,326.204 94.86,334.642 
						81.707,347.051 19.911,355.985 					"/>
				</g>
				<polygon style="fill:#FFFFFF;stroke:#263238;stroke-miterlimit:10;" points="20.159,334.394 16.437,332.16 16.188,353.751 
					19.911,355.985 				"/>
				<polygon style="fill:#FFFFFF;stroke:#263238;stroke-miterlimit:10;" points="78.481,323.97 82.203,326.204 20.159,334.394 
					16.437,332.16 				"/>
			</g>
		</g>
		<polygon style="fill:#92E3A9;stroke:#263238;stroke-miterlimit:10;" points="29.431,433.839 26.788,426.573 32.404,431.197 
			28.44,418.975 33.064,426.242 31.743,406.094 39.889,428.802 40.331,415.342 42.974,427.564 47.268,417.984 47.598,426.573 
			54.204,411.709 54.534,420.297 58.498,412.7 57.837,423.27 61.14,421.288 60.15,424.591 61.85,423.414 64.444,421.618 
			61.471,427.894 70.719,422.939 67.086,427.894 76.335,428.554 21.173,438.464 		"/>
	</g>
</g>
</svg>
